<?xml version="1.0" encoding="utf-8"?>
<!-- Generator: Adobe Illustrator 24.1.2, SVG Export Plug-In . SVG Version: 6.00 Build 0)  -->
<svg version="1.1" id="Layer_1" xmlns="http://www.w3.org/2000/svg" xmlns:xlink="http://www.w3.org/1999/xlink" x="0px" y="0px"
	 viewBox="0 0 800 228" style="enable-background:new 0 0 800 228;" xml:space="preserve">
<style type="text/css">
	.st0{fill:#004058;}
	.st1{fill:#006036;}
	.st2{fill-rule:evenodd;clip-rule:evenodd;fill:#FDC800;}
	.st3{fill-rule:evenodd;clip-rule:evenodd;fill:#006036;}
	.st4{fill-rule:evenodd;clip-rule:evenodd;fill:#004058;}
	.st5{fill-rule:evenodd;clip-rule:evenodd;fill:#B8D0DC;}
	.st6{fill-rule:evenodd;clip-rule:evenodd;fill:#FFFFFF;}
</style>
<g>
	<path class="st0" d="M332.3,203.3v9.1h-5.7v-24.7h8c1.8,0,3.3,0.2,4.6,0.5c1.3,0.4,2.3,0.9,3.1,1.5c0.8,0.7,1.4,1.4,1.7,2.3
		c0.4,0.9,0.5,1.9,0.5,2.9c0,0.8-0.1,1.6-0.3,2.3c-0.2,0.7-0.5,1.4-1,2c-0.4,0.6-0.9,1.1-1.6,1.6c-0.6,0.5-1.3,0.9-2.1,1.2
		c0.4,0.2,0.7,0.4,1.1,0.7c0.3,0.3,0.6,0.6,0.9,1l5.3,8.6h-5.2c-1,0-1.6-0.4-2.1-1.1l-4.1-7.2c-0.2-0.3-0.4-0.5-0.6-0.7
		c-0.2-0.1-0.6-0.2-1-0.2H332.3L332.3,203.3z M637.5,194.9v17.6h-5.3v-17.6H637.5L637.5,194.9z M638.2,190.1c0,0.4-0.1,0.8-0.3,1.2
		c-0.2,0.4-0.4,0.7-0.7,1c-0.3,0.3-0.6,0.5-1,0.7c-0.4,0.2-0.8,0.2-1.2,0.2c-0.4,0-0.8-0.1-1.2-0.2c-0.4-0.2-0.7-0.4-1-0.7
		c-0.3-0.3-0.5-0.6-0.7-1c-0.2-0.4-0.2-0.8-0.2-1.2c0-0.4,0.1-0.8,0.2-1.2c0.2-0.4,0.4-0.7,0.7-1c0.3-0.3,0.6-0.5,1-0.7
		c0.4-0.2,0.8-0.2,1.2-0.2c0.4,0,0.9,0.1,1.2,0.2c0.4,0.2,0.7,0.4,1,0.7c0.3,0.3,0.5,0.6,0.7,1C638.1,189.2,638.2,189.6,638.2,190.1
		L638.2,190.1z M653.7,199c-0.2,0.2-0.3,0.3-0.5,0.5c-0.1,0.1-0.4,0.2-0.6,0.2c-0.3,0-0.5-0.1-0.7-0.2c-0.2-0.1-0.4-0.3-0.7-0.4
		c-0.3-0.2-0.6-0.3-0.9-0.4c-0.4-0.1-0.8-0.2-1.3-0.2c-0.6,0-1.2,0.1-1.7,0.4c-0.5,0.2-0.9,0.6-1.2,1c-0.3,0.4-0.5,1-0.7,1.6
		c-0.1,0.6-0.2,1.4-0.2,2.2c0,1.7,0.3,3,1,3.9c0.6,0.9,1.5,1.4,2.7,1.4c0.6,0,1.1-0.1,1.5-0.2c0.4-0.2,0.7-0.3,0.9-0.5
		c0.2-0.2,0.5-0.4,0.7-0.5c0.2-0.2,0.5-0.2,0.8-0.2c0.4,0,0.7,0.2,0.9,0.5l1.5,1.9c-0.5,0.6-1.1,1.1-1.7,1.5
		c-0.6,0.4-1.2,0.7-1.8,0.9c-0.6,0.2-1.3,0.4-1.9,0.5c-0.6,0.1-1.2,0.1-1.8,0.1c-1.1,0-2.1-0.2-3.1-0.6c-1-0.4-1.8-1-2.6-1.8
		c-0.7-0.8-1.3-1.7-1.8-2.9c-0.4-1.1-0.7-2.4-0.7-3.9c0-1.3,0.2-2.5,0.6-3.6c0.4-1.1,0.9-2.1,1.7-2.9c0.7-0.8,1.7-1.4,2.7-1.9
		c1.1-0.5,2.3-0.7,3.8-0.7c1.4,0,2.6,0.2,3.6,0.7c1,0.4,2,1.1,2.8,1.9L653.7,199L653.7,199z M669,212.4c-0.5,0-0.9-0.1-1.1-0.2
		c-0.3-0.1-0.5-0.4-0.6-0.8l-0.4-1c-0.4,0.4-0.9,0.7-1.3,1c-0.4,0.3-0.8,0.5-1.3,0.7c-0.4,0.2-0.9,0.3-1.4,0.4
		c-0.5,0.1-1,0.1-1.6,0.1c-0.8,0-1.5-0.1-2.2-0.3c-0.7-0.2-1.2-0.5-1.7-0.9c-0.5-0.4-0.8-0.9-1.1-1.5c-0.2-0.6-0.4-1.3-0.4-2.1
		c0-0.6,0.2-1.3,0.5-1.9c0.3-0.7,0.9-1.3,1.6-1.8c0.8-0.5,1.8-1,3.2-1.3c1.3-0.4,3-0.6,5-0.6v-0.7c0-1-0.2-1.8-0.6-2.2
		c-0.4-0.5-1-0.7-1.8-0.7c-0.6,0-1.1,0.1-1.5,0.2c-0.4,0.1-0.7,0.3-1.1,0.5c-0.3,0.2-0.6,0.3-0.9,0.5c-0.3,0.1-0.6,0.2-1.1,0.2
		c-0.4,0-0.7-0.1-0.9-0.3c-0.3-0.2-0.5-0.4-0.6-0.6l-0.9-1.6c1.1-0.9,2.2-1.6,3.5-2.1c1.3-0.5,2.7-0.7,4.2-0.7c1.1,0,2,0.2,2.9,0.5
		c0.9,0.3,1.6,0.8,2.2,1.4c0.6,0.6,1,1.3,1.4,2.2c0.3,0.8,0.5,1.8,0.5,2.8v11H669L669,212.4z M662.9,209.2c0.7,0,1.3-0.1,1.8-0.4
		c0.5-0.2,1-0.6,1.5-1.2v-2.4c-1.1,0-1.9,0.1-2.6,0.3c-0.7,0.1-1.2,0.3-1.6,0.5c-0.4,0.2-0.7,0.4-0.8,0.7c-0.2,0.3-0.2,0.5-0.2,0.8
		c0,0.6,0.2,1,0.5,1.3C661.8,209.1,662.3,209.2,662.9,209.2L662.9,209.2z M697.5,206c0.1,0,0.3,0,0.4,0.1c0.1,0.1,0.3,0.1,0.4,0.3
		l2.3,2.4c-1,1.3-2.2,2.3-3.7,2.9c-1.5,0.7-3.3,1-5.3,1c-1.9,0-3.6-0.3-5-1c-1.5-0.6-2.7-1.5-3.8-2.6c-1-1.1-1.8-2.5-2.4-4
		c-0.6-1.5-0.8-3.2-0.8-5c0-1.8,0.3-3.5,0.9-5.1c0.6-1.5,1.5-2.9,2.7-4c1.1-1.1,2.5-2,4.1-2.6c1.6-0.6,3.3-0.9,5.2-0.9
		c0.9,0,1.8,0.1,2.6,0.2c0.8,0.2,1.6,0.4,2.3,0.7c0.7,0.3,1.4,0.6,2,1c0.6,0.4,1.1,0.8,1.6,1.3l-1.9,2.6c-0.1,0.2-0.3,0.3-0.4,0.4
		c-0.2,0.1-0.4,0.2-0.7,0.2c-0.2,0-0.4,0-0.6-0.1c-0.2-0.1-0.4-0.2-0.6-0.3c-0.2-0.1-0.4-0.3-0.7-0.4c-0.2-0.2-0.5-0.3-0.9-0.4
		c-0.3-0.1-0.7-0.2-1.2-0.3c-0.4-0.1-1-0.1-1.6-0.1c-1,0-2,0.2-2.8,0.5c-0.9,0.4-1.6,0.9-2.2,1.6c-0.6,0.7-1.1,1.5-1.4,2.5
		c-0.3,1-0.5,2.1-0.5,3.3c0,1.3,0.2,2.4,0.5,3.4c0.3,1,0.8,1.8,1.4,2.5c0.6,0.7,1.3,1.2,2.1,1.5c0.8,0.4,1.6,0.5,2.5,0.5
		c0.5,0,1,0,1.4-0.1c0.4-0.1,0.8-0.1,1.2-0.3c0.4-0.1,0.7-0.3,1.1-0.5c0.3-0.2,0.7-0.4,1-0.7c0.1-0.1,0.3-0.2,0.4-0.3
		C697.2,206.1,697.3,206,697.5,206L697.5,206z M714.6,212.4c-0.5,0-0.9-0.1-1.1-0.2c-0.3-0.1-0.5-0.4-0.6-0.8l-0.4-1
		c-0.4,0.4-0.9,0.7-1.3,1c-0.4,0.3-0.8,0.5-1.3,0.7c-0.4,0.2-0.9,0.3-1.4,0.4c-0.5,0.1-1,0.1-1.6,0.1c-0.8,0-1.5-0.1-2.2-0.3
		c-0.7-0.2-1.2-0.5-1.7-0.9c-0.5-0.4-0.8-0.9-1.1-1.5c-0.2-0.6-0.4-1.3-0.4-2.1c0-0.6,0.2-1.3,0.5-1.9c0.3-0.7,0.9-1.3,1.6-1.8
		c0.8-0.5,1.8-1,3.2-1.3c1.3-0.4,3-0.6,5-0.6v-0.7c0-1-0.2-1.8-0.6-2.2c-0.4-0.5-1-0.7-1.8-0.7c-0.6,0-1.1,0.1-1.5,0.2
		c-0.4,0.1-0.7,0.3-1.1,0.5c-0.3,0.2-0.6,0.3-0.9,0.5c-0.3,0.1-0.6,0.2-1,0.2c-0.4,0-0.7-0.1-0.9-0.3c-0.3-0.2-0.5-0.4-0.6-0.6
		l-0.9-1.6c1.1-0.9,2.2-1.6,3.5-2.1c1.3-0.5,2.7-0.7,4.2-0.7c1.1,0,2,0.2,2.9,0.5c0.9,0.3,1.6,0.8,2.2,1.4c0.6,0.6,1,1.3,1.4,2.2
		c0.3,0.8,0.5,1.8,0.5,2.8v11H714.6L714.6,212.4z M708.6,209.2c0.7,0,1.3-0.1,1.8-0.4c0.5-0.2,1-0.6,1.5-1.2v-2.4
		c-1.1,0-1.9,0.1-2.6,0.3c-0.7,0.1-1.2,0.3-1.6,0.5c-0.4,0.2-0.7,0.4-0.8,0.7c-0.2,0.3-0.2,0.5-0.2,0.8c0,0.6,0.2,1,0.5,1.3
		C707.5,209.1,707.9,209.2,708.6,209.2L708.6,209.2z M726.2,212.7c-0.8,0-1.6-0.1-2.2-0.4c-0.6-0.2-1.2-0.6-1.6-1
		c-0.4-0.4-0.8-1-1-1.6c-0.2-0.6-0.3-1.3-0.3-2.1v-9.1h-1.5c-0.3,0-0.5-0.1-0.7-0.3c-0.2-0.2-0.3-0.4-0.3-0.8v-2.1l2.8-0.5l1-4.3
		c0.1-0.5,0.5-0.8,1.2-0.8h2.7v5.1h4.3v3.6h-4.3v8.7c0,0.4,0.1,0.7,0.3,1c0.2,0.3,0.5,0.4,0.9,0.4c0.2,0,0.4,0,0.5-0.1
		c0.1,0,0.2-0.1,0.3-0.1c0.1-0.1,0.2-0.1,0.3-0.1c0.1,0,0.2-0.1,0.3-0.1c0.2,0,0.3,0,0.4,0.1c0.1,0.1,0.2,0.2,0.3,0.3l1.6,2.5
		c-0.7,0.5-1.4,0.9-2.3,1.1C728,212.6,727.1,212.7,726.2,212.7L726.2,212.7z M740.7,194.6c1.3,0,2.5,0.2,3.6,0.6
		c1.1,0.4,2,1,2.8,1.8c0.8,0.8,1.4,1.7,1.8,2.8c0.4,1.1,0.6,2.4,0.6,3.8c0,1.4-0.2,2.7-0.6,3.8c-0.4,1.1-1,2.1-1.8,2.9
		c-0.8,0.8-1.7,1.4-2.8,1.8c-1.1,0.4-2.3,0.6-3.6,0.6c-1.3,0-2.6-0.2-3.7-0.6c-1.1-0.4-2-1-2.8-1.8c-0.8-0.8-1.4-1.7-1.8-2.9
		c-0.4-1.1-0.7-2.4-0.7-3.8c0-1.4,0.2-2.6,0.7-3.8c0.4-1.1,1.1-2.1,1.8-2.8c0.8-0.8,1.7-1.4,2.8-1.8
		C738.1,194.8,739.4,194.6,740.7,194.6L740.7,194.6z M740.7,208.8c1.2,0,2.1-0.4,2.7-1.3c0.6-0.9,0.9-2.1,0.9-3.9
		c0-1.7-0.3-3-0.9-3.9c-0.6-0.8-1.5-1.3-2.7-1.3c-1.2,0-2.2,0.4-2.7,1.3c-0.6,0.8-0.9,2.1-0.9,3.9c0,1.7,0.3,3,0.9,3.9
		C738.5,208.4,739.5,208.8,740.7,208.8L740.7,208.8z M747.4,187.5l-4.4,4.5c-0.3,0.3-0.5,0.4-0.7,0.5c-0.2,0.1-0.6,0.2-0.9,0.2h-3.2
		l2.3-4.2c0.2-0.3,0.4-0.6,0.7-0.8c0.3-0.2,0.7-0.3,1.2-0.3H747.4L747.4,187.5z M757.2,187.1v25.4H752v-25.4H757.2L757.2,187.1z
		 M766.2,194.9v17.6h-5.3v-17.6H766.2L766.2,194.9z M766.8,190.1c0,0.4-0.1,0.8-0.3,1.2c-0.2,0.4-0.4,0.7-0.7,1
		c-0.3,0.3-0.6,0.5-1,0.7c-0.4,0.2-0.8,0.2-1.2,0.2c-0.4,0-0.8-0.1-1.2-0.2c-0.4-0.2-0.7-0.4-1-0.7c-0.3-0.3-0.5-0.6-0.7-1
		c-0.2-0.4-0.2-0.8-0.2-1.2c0-0.4,0.1-0.8,0.2-1.2c0.2-0.4,0.4-0.7,0.7-1c0.3-0.3,0.6-0.5,1-0.7c0.4-0.2,0.8-0.2,1.2-0.2
		c0.4,0,0.9,0.1,1.2,0.2c0.4,0.2,0.7,0.4,1,0.7c0.3,0.3,0.5,0.6,0.7,1C766.7,189.2,766.8,189.6,766.8,190.1L766.8,190.1z M782.4,199
		c-0.2,0.2-0.3,0.3-0.5,0.5c-0.1,0.1-0.4,0.2-0.6,0.2c-0.3,0-0.5-0.1-0.7-0.2c-0.2-0.1-0.4-0.3-0.7-0.4c-0.3-0.2-0.6-0.3-0.9-0.4
		c-0.3-0.1-0.8-0.2-1.3-0.2c-0.6,0-1.2,0.1-1.7,0.4c-0.5,0.2-0.9,0.6-1.2,1c-0.3,0.4-0.5,1-0.7,1.6c-0.1,0.6-0.2,1.4-0.2,2.2
		c0,1.7,0.3,3,1,3.9c0.7,0.9,1.5,1.4,2.7,1.4c0.6,0,1.1-0.1,1.5-0.2c0.4-0.2,0.7-0.3,0.9-0.5c0.2-0.2,0.5-0.4,0.7-0.5
		c0.2-0.2,0.5-0.2,0.8-0.2c0.4,0,0.7,0.2,0.9,0.5l1.5,1.9c-0.5,0.6-1.1,1.1-1.7,1.5c-0.6,0.4-1.2,0.7-1.8,0.9
		c-0.6,0.2-1.3,0.4-1.9,0.5c-0.6,0.1-1.2,0.1-1.8,0.1c-1.1,0-2.1-0.2-3.1-0.6c-1-0.4-1.8-1-2.6-1.8c-0.7-0.8-1.3-1.7-1.8-2.9
		c-0.4-1.1-0.7-2.4-0.7-3.9c0-1.3,0.2-2.5,0.6-3.6c0.4-1.1,0.9-2.1,1.7-2.9c0.7-0.8,1.7-1.4,2.7-1.9c1.1-0.5,2.3-0.7,3.8-0.7
		c1.4,0,2.6,0.2,3.6,0.7c1,0.4,2,1.1,2.8,1.9L782.4,199L782.4,199z M797.6,212.4c-0.5,0-0.9-0.1-1.1-0.2c-0.3-0.1-0.5-0.4-0.6-0.8
		l-0.4-1c-0.4,0.4-0.9,0.7-1.3,1c-0.4,0.3-0.8,0.5-1.3,0.7c-0.4,0.2-0.9,0.3-1.4,0.4c-0.5,0.1-1,0.1-1.6,0.1c-0.8,0-1.5-0.1-2.2-0.3
		c-0.7-0.2-1.2-0.5-1.7-0.9c-0.5-0.4-0.8-0.9-1.1-1.5c-0.2-0.6-0.4-1.3-0.4-2.1c0-0.6,0.2-1.3,0.5-1.9c0.3-0.7,0.9-1.3,1.6-1.8
		c0.8-0.5,1.8-1,3.1-1.3c1.3-0.4,3-0.6,5-0.6v-0.7c0-1-0.2-1.8-0.6-2.2c-0.4-0.5-1-0.7-1.8-0.7c-0.6,0-1.1,0.1-1.5,0.2
		c-0.4,0.1-0.7,0.3-1.1,0.5c-0.3,0.2-0.6,0.3-0.9,0.5c-0.3,0.1-0.6,0.2-1,0.2c-0.4,0-0.7-0.1-0.9-0.3c-0.3-0.2-0.5-0.4-0.6-0.6
		l-0.9-1.6c1.1-0.9,2.2-1.6,3.5-2.1c1.3-0.5,2.7-0.7,4.2-0.7c1.1,0,2,0.2,2.9,0.5c0.9,0.3,1.6,0.8,2.2,1.4c0.6,0.6,1,1.3,1.4,2.2
		c0.3,0.8,0.5,1.8,0.5,2.8v11H797.6L797.6,212.4z M791.6,209.2c0.7,0,1.3-0.1,1.8-0.4c0.5-0.2,1-0.6,1.5-1.2v-2.4
		c-1.1,0-1.9,0.1-2.6,0.3c-0.7,0.1-1.2,0.3-1.6,0.5c-0.4,0.2-0.7,0.4-0.8,0.7c-0.2,0.3-0.2,0.5-0.2,0.8c0,0.6,0.2,1,0.5,1.3
		C790.5,209.1,790.9,209.2,791.6,209.2L791.6,209.2z M332.3,199.4h2.3c0.8,0,1.4-0.1,2-0.3c0.5-0.2,1-0.5,1.3-0.8
		c0.4-0.3,0.6-0.8,0.8-1.2c0.2-0.5,0.2-1,0.2-1.5c0-1.1-0.3-1.9-1.1-2.5c-0.7-0.6-1.8-0.9-3.3-0.9h-2.3V199.4L332.3,199.4z
		 M356,194.6c1.2,0,2.2,0.2,3.2,0.5c1,0.4,1.8,0.9,2.5,1.6c0.7,0.7,1.2,1.5,1.6,2.5c0.4,1,0.6,2.1,0.6,3.4c0,0.4,0,0.7-0.1,1
		c0,0.2-0.1,0.4-0.2,0.6c-0.1,0.1-0.2,0.2-0.4,0.3c-0.2,0.1-0.3,0.1-0.6,0.1h-10.1c0.2,1.5,0.6,2.5,1.3,3.2c0.7,0.7,1.7,1,2.8,1
		c0.6,0,1.1-0.1,1.6-0.2c0.4-0.1,0.8-0.3,1.2-0.5c0.3-0.2,0.7-0.3,0.9-0.5c0.3-0.1,0.6-0.2,0.9-0.2c0.4,0,0.7,0.2,0.9,0.5l1.5,1.9
		c-0.5,0.6-1.1,1.1-1.8,1.5c-0.6,0.4-1.3,0.7-1.9,0.9c-0.7,0.2-1.3,0.4-2,0.5c-0.7,0.1-1.3,0.1-1.9,0.1c-1.2,0-2.4-0.2-3.5-0.6
		c-1.1-0.4-2-1-2.8-1.8c-0.8-0.8-1.4-1.8-1.9-2.9c-0.5-1.2-0.7-2.5-0.7-4.1c0-1.2,0.2-2.3,0.6-3.3c0.4-1.1,1-2,1.7-2.8
		c0.8-0.8,1.7-1.4,2.7-1.9C353.4,194.8,354.6,194.6,356,194.6L356,194.6z M356.1,198.2c-1,0-1.8,0.3-2.4,0.9
		c-0.6,0.6-0.9,1.4-1.1,2.5h6.6c0-0.4-0.1-0.8-0.2-1.2c-0.1-0.4-0.3-0.8-0.5-1.1c-0.2-0.3-0.6-0.6-1-0.8
		C357.1,198.3,356.6,198.2,356.1,198.2L356.1,198.2z M366.2,212.4v-17.6h3.3c0.3,0,0.6,0.1,0.8,0.2c0.2,0.1,0.4,0.4,0.5,0.7l0.3,1
		c0.3-0.3,0.7-0.6,1.1-0.9c0.4-0.3,0.8-0.5,1.2-0.7c0.4-0.2,0.9-0.3,1.3-0.4c0.5-0.1,1-0.2,1.6-0.2c1,0,1.8,0.2,2.6,0.5
		c0.7,0.3,1.4,0.8,1.9,1.4c0.5,0.6,0.9,1.3,1.2,2.1c0.3,0.8,0.4,1.7,0.4,2.7v11.2h-5.3v-11.2c0-0.9-0.2-1.5-0.6-2
		c-0.4-0.5-1-0.7-1.7-0.7c-0.6,0-1.1,0.1-1.6,0.4c-0.5,0.2-1,0.6-1.5,1v12.5H366.2L366.2,212.4z M392.9,194.6c1.3,0,2.5,0.2,3.6,0.6
		c1.1,0.4,2,1,2.8,1.8c0.8,0.8,1.4,1.7,1.8,2.8c0.4,1.1,0.6,2.4,0.6,3.8c0,1.4-0.2,2.7-0.6,3.8c-0.4,1.1-1,2.1-1.8,2.9
		c-0.8,0.8-1.7,1.4-2.8,1.8c-1.1,0.4-2.3,0.6-3.6,0.6c-1.3,0-2.6-0.2-3.7-0.6c-1.1-0.4-2.1-1-2.8-1.8c-0.8-0.8-1.4-1.7-1.8-2.9
		c-0.4-1.1-0.7-2.4-0.7-3.8c0-1.4,0.2-2.6,0.7-3.8c0.4-1.1,1.1-2.1,1.8-2.8c0.8-0.8,1.7-1.4,2.8-1.8
		C390.4,194.8,391.6,194.6,392.9,194.6L392.9,194.6z M392.9,208.8c1.2,0,2.1-0.4,2.7-1.3c0.6-0.9,0.9-2.1,0.9-3.9
		c0-1.7-0.3-3-0.9-3.9c-0.6-0.8-1.5-1.3-2.7-1.3c-1.2,0-2.2,0.4-2.7,1.3c-0.6,0.8-0.9,2.1-0.9,3.9c0,1.7,0.3,3,0.9,3.9
		C390.8,208.4,391.7,208.8,392.9,208.8L392.9,208.8z M413.1,212.4h-4.8l-6.8-17.6h4.4c0.4,0,0.7,0.1,0.9,0.3
		c0.3,0.2,0.4,0.4,0.5,0.7l2.4,7.9c0.2,0.6,0.4,1.3,0.6,1.9c0.2,0.6,0.3,1.2,0.4,1.8c0.1-0.6,0.3-1.2,0.5-1.8
		c0.2-0.6,0.4-1.2,0.6-1.9l2.5-7.9c0.1-0.3,0.3-0.5,0.5-0.7c0.2-0.2,0.5-0.3,0.9-0.3h4.2L413.1,212.4L413.1,212.4z M433.5,212.4
		c-0.5,0-0.9-0.1-1.1-0.2c-0.3-0.1-0.5-0.4-0.6-0.8l-0.4-1c-0.4,0.4-0.9,0.7-1.3,1c-0.4,0.3-0.8,0.5-1.3,0.7
		c-0.4,0.2-0.9,0.3-1.4,0.4c-0.5,0.1-1,0.1-1.6,0.1c-0.8,0-1.5-0.1-2.2-0.3c-0.7-0.2-1.2-0.5-1.7-0.9c-0.5-0.4-0.8-0.9-1.1-1.5
		c-0.2-0.6-0.4-1.3-0.4-2.1c0-0.6,0.2-1.3,0.5-1.9c0.3-0.7,0.9-1.3,1.6-1.8c0.8-0.5,1.8-1,3.2-1.3c1.3-0.4,3-0.6,5-0.6v-0.7
		c0-1-0.2-1.8-0.6-2.2c-0.4-0.5-1-0.7-1.8-0.7c-0.6,0-1.1,0.1-1.5,0.2c-0.4,0.1-0.7,0.3-1.1,0.5c-0.3,0.2-0.6,0.3-0.9,0.5
		c-0.3,0.1-0.6,0.2-1.1,0.2c-0.4,0-0.7-0.1-0.9-0.3c-0.3-0.2-0.5-0.4-0.6-0.6l-0.9-1.6c1.1-0.9,2.2-1.6,3.5-2.1
		c1.3-0.5,2.7-0.7,4.2-0.7c1.1,0,2,0.2,2.9,0.5c0.9,0.3,1.6,0.8,2.2,1.4c0.6,0.6,1,1.3,1.4,2.2c0.3,0.8,0.5,1.8,0.5,2.8v11H433.5
		L433.5,212.4z M427.5,209.2c0.7,0,1.3-0.1,1.8-0.4c0.5-0.2,1-0.6,1.5-1.2v-2.4c-1.1,0-1.9,0.1-2.6,0.3c-0.7,0.1-1.2,0.3-1.6,0.5
		c-0.4,0.2-0.7,0.4-0.8,0.7c-0.2,0.3-0.2,0.5-0.2,0.8c0,0.6,0.2,1,0.5,1.3C426.4,209.1,426.9,209.2,427.5,209.2L427.5,209.2z
		 M443.9,216c0.2,0,0.3,0,0.5,0.1c0.2,0,0.4,0.1,0.6,0.1c0.3,0,0.5-0.1,0.6-0.2c0.1-0.1,0.2-0.2,0.2-0.3c0-0.2-0.2-0.4-0.5-0.5
		c-0.3-0.1-0.9-0.2-1.8-0.3l0.7-2.2c-0.9-0.2-1.7-0.5-2.5-1c-0.8-0.5-1.5-1.1-2-1.9c-0.6-0.8-1-1.6-1.4-2.7c-0.3-1-0.5-2.1-0.5-3.4
		c0-1.3,0.2-2.5,0.6-3.6c0.4-1.1,0.9-2.1,1.7-2.9c0.7-0.8,1.7-1.4,2.7-1.9c1.1-0.5,2.3-0.7,3.8-0.7c1.4,0,2.6,0.2,3.6,0.7
		c1,0.4,2,1.1,2.8,1.9l-1.4,1.8c-0.2,0.2-0.3,0.3-0.5,0.5c-0.1,0.1-0.4,0.2-0.6,0.2c-0.3,0-0.5-0.1-0.7-0.2
		c-0.2-0.1-0.4-0.3-0.7-0.4c-0.3-0.2-0.6-0.3-0.9-0.4c-0.3-0.1-0.8-0.2-1.3-0.2c-0.6,0-1.2,0.1-1.7,0.4c-0.5,0.2-0.9,0.6-1.2,1
		c-0.3,0.4-0.5,1-0.7,1.6c-0.1,0.6-0.2,1.4-0.2,2.2c0,1.7,0.3,3,1,3.9c0.7,0.9,1.5,1.4,2.7,1.4c0.6,0,1.1-0.1,1.5-0.2
		c0.4-0.2,0.7-0.3,0.9-0.5c0.2-0.2,0.5-0.4,0.7-0.5c0.2-0.2,0.5-0.2,0.8-0.2c0.4,0,0.7,0.2,0.9,0.5l1.5,1.9
		c-0.4,0.5-0.9,0.9-1.3,1.3c-0.5,0.3-0.9,0.6-1.4,0.9c-0.5,0.2-1,0.4-1.5,0.5c-0.5,0.1-1,0.2-1.5,0.3l-0.2,0.5
		c0.5,0.1,0.9,0.3,1.3,0.5c0.3,0.2,0.6,0.4,0.8,0.6c0.2,0.2,0.3,0.4,0.4,0.7c0.1,0.3,0.1,0.5,0.1,0.8c0,0.4-0.1,0.7-0.3,1.1
		c-0.2,0.3-0.5,0.6-0.9,0.8c-0.4,0.2-0.9,0.4-1.4,0.5c-0.6,0.1-1.2,0.2-1.9,0.2c-0.5,0-0.9,0-1.3-0.1c-0.4,0-0.8-0.1-1.2-0.2
		l0.5-1.6C443.3,216.1,443.5,216,443.9,216L443.9,216z M466.8,212.4c-0.5,0-0.9-0.1-1.1-0.2c-0.3-0.1-0.5-0.4-0.6-0.8l-0.4-1
		c-0.4,0.4-0.9,0.7-1.3,1c-0.4,0.3-0.8,0.5-1.3,0.7c-0.4,0.2-0.9,0.3-1.4,0.4c-0.5,0.1-1,0.1-1.6,0.1c-0.8,0-1.5-0.1-2.2-0.3
		c-0.7-0.2-1.2-0.5-1.7-0.9c-0.5-0.4-0.8-0.9-1.1-1.5c-0.2-0.6-0.4-1.3-0.4-2.1c0-0.6,0.2-1.3,0.5-1.9c0.3-0.7,0.9-1.3,1.6-1.8
		c0.8-0.5,1.8-1,3.2-1.3c1.3-0.4,3-0.6,5-0.6v-0.7c0-1-0.2-1.8-0.6-2.2c-0.4-0.5-1-0.7-1.8-0.7c-0.6,0-1.1,0.1-1.5,0.2
		c-0.4,0.1-0.7,0.3-1.1,0.5c-0.3,0.2-0.6,0.3-0.9,0.5c-0.3,0.1-0.6,0.2-1,0.2c-0.4,0-0.7-0.1-0.9-0.3c-0.3-0.2-0.5-0.4-0.6-0.6
		l-0.9-1.6c1.1-0.9,2.2-1.6,3.5-2.1c1.3-0.5,2.7-0.7,4.2-0.7c1.1,0,2,0.2,2.9,0.5c0.9,0.3,1.6,0.8,2.2,1.4c0.6,0.6,1,1.3,1.4,2.2
		c0.3,0.8,0.5,1.8,0.5,2.8v11H466.8L466.8,212.4z M460.8,209.2c0.7,0,1.3-0.1,1.8-0.4c0.5-0.2,1-0.6,1.5-1.2v-2.4
		c-1.1,0-1.9,0.1-2.6,0.3c-0.7,0.1-1.2,0.3-1.6,0.5c-0.4,0.2-0.7,0.4-0.8,0.7c-0.2,0.3-0.2,0.5-0.2,0.8c0,0.6,0.2,1,0.5,1.3
		C459.7,209.1,460.2,209.2,460.8,209.2L460.8,209.2z M464,188.9c0.3,0,0.5-0.1,0.7-0.2c0.2-0.1,0.3-0.4,0.3-0.9h3.2
		c0,0.7-0.1,1.3-0.3,1.9c-0.2,0.6-0.5,1.1-0.8,1.5c-0.3,0.4-0.8,0.7-1.2,0.9c-0.5,0.2-1,0.3-1.5,0.3c-0.4,0-0.8-0.1-1.2-0.2
		c-0.4-0.1-0.7-0.3-1-0.4c-0.3-0.2-0.6-0.3-0.8-0.4c-0.3-0.1-0.5-0.2-0.7-0.2c-0.3,0-0.5,0.1-0.6,0.2c-0.2,0.2-0.2,0.5-0.2,0.9h-3.2
		c0-0.7,0.1-1.4,0.3-1.9c0.2-0.6,0.5-1.1,0.8-1.5c0.4-0.4,0.8-0.7,1.2-0.9c0.5-0.2,1-0.3,1.5-0.3c0.4,0,0.8,0.1,1.2,0.2
		c0.4,0.1,0.7,0.3,1,0.4c0.3,0.2,0.6,0.3,0.8,0.4C463.5,188.9,463.8,188.9,464,188.9L464,188.9z M480.1,194.6c1.3,0,2.5,0.2,3.6,0.6
		c1.1,0.4,2,1,2.8,1.8c0.8,0.8,1.4,1.7,1.8,2.8c0.4,1.1,0.6,2.4,0.6,3.8c0,1.4-0.2,2.7-0.6,3.8c-0.4,1.1-1,2.1-1.8,2.9
		c-0.8,0.8-1.7,1.4-2.8,1.8c-1.1,0.4-2.3,0.6-3.6,0.6c-1.3,0-2.6-0.2-3.7-0.6c-1.1-0.4-2-1-2.8-1.8c-0.8-0.8-1.4-1.7-1.8-2.9
		c-0.4-1.1-0.7-2.4-0.7-3.8c0-1.4,0.2-2.6,0.7-3.8c0.4-1.1,1.1-2.1,1.8-2.8c0.8-0.8,1.7-1.4,2.8-1.8
		C477.5,194.8,478.7,194.6,480.1,194.6L480.1,194.6z M480.1,208.8c1.2,0,2.1-0.4,2.7-1.3c0.6-0.9,0.9-2.1,0.9-3.9
		c0-1.7-0.3-3-0.9-3.9c-0.6-0.8-1.5-1.3-2.7-1.3c-1.2,0-2.2,0.4-2.7,1.3c-0.6,0.8-0.9,2.1-0.9,3.9c0,1.7,0.3,3,0.9,3.9
		C477.9,208.4,478.8,208.8,480.1,208.8L480.1,208.8z M514.3,206c0.1,0,0.3,0,0.4,0.1c0.1,0.1,0.3,0.1,0.4,0.3l2.3,2.4
		c-1,1.3-2.2,2.3-3.7,2.9c-1.5,0.7-3.3,1-5.3,1c-1.9,0-3.6-0.3-5-1c-1.5-0.6-2.7-1.5-3.8-2.6c-1-1.1-1.8-2.5-2.4-4
		c-0.6-1.5-0.8-3.2-0.8-5c0-1.8,0.3-3.5,0.9-5.1c0.6-1.5,1.5-2.9,2.7-4c1.1-1.1,2.5-2,4.1-2.6c1.6-0.6,3.3-0.9,5.2-0.9
		c0.9,0,1.8,0.1,2.6,0.2c0.8,0.2,1.6,0.4,2.3,0.7c0.7,0.3,1.4,0.6,2,1c0.6,0.4,1.1,0.8,1.6,1.3l-1.9,2.6c-0.1,0.2-0.3,0.3-0.4,0.4
		c-0.2,0.1-0.4,0.2-0.7,0.2c-0.2,0-0.4,0-0.6-0.1c-0.2-0.1-0.4-0.2-0.6-0.3c-0.2-0.1-0.4-0.3-0.7-0.4c-0.2-0.2-0.5-0.3-0.9-0.4
		c-0.3-0.1-0.7-0.2-1.2-0.3c-0.4-0.1-1-0.1-1.6-0.1c-1,0-2,0.2-2.8,0.5c-0.9,0.4-1.6,0.9-2.2,1.6c-0.6,0.7-1.1,1.5-1.4,2.5
		c-0.3,1-0.5,2.1-0.5,3.3c0,1.3,0.2,2.4,0.5,3.4c0.3,1,0.8,1.8,1.4,2.5c0.6,0.7,1.3,1.2,2.1,1.5c0.8,0.4,1.6,0.5,2.5,0.5
		c0.5,0,1,0,1.4-0.1c0.4-0.1,0.8-0.1,1.2-0.3c0.4-0.1,0.7-0.3,1-0.5c0.3-0.2,0.7-0.4,1-0.7c0.1-0.1,0.3-0.2,0.4-0.3
		C514,206.1,514.2,206,514.3,206L514.3,206z M531.4,212.4c-0.5,0-0.9-0.1-1.1-0.2c-0.3-0.1-0.5-0.4-0.6-0.8l-0.4-1
		c-0.4,0.4-0.9,0.7-1.3,1c-0.4,0.3-0.8,0.5-1.3,0.7c-0.4,0.2-0.9,0.3-1.4,0.4c-0.5,0.1-1,0.1-1.6,0.1c-0.8,0-1.5-0.1-2.2-0.3
		c-0.7-0.2-1.2-0.5-1.7-0.9c-0.5-0.4-0.8-0.9-1.1-1.5c-0.2-0.6-0.4-1.3-0.4-2.1c0-0.6,0.2-1.3,0.5-1.9c0.3-0.7,0.9-1.3,1.6-1.8
		c0.8-0.5,1.8-1,3.2-1.3c1.3-0.4,3-0.6,5-0.6v-0.7c0-1-0.2-1.8-0.6-2.2c-0.4-0.5-1-0.7-1.8-0.7c-0.6,0-1.1,0.1-1.5,0.2
		c-0.4,0.1-0.7,0.3-1.1,0.5c-0.3,0.2-0.6,0.3-0.9,0.5c-0.3,0.1-0.6,0.2-1.1,0.2c-0.4,0-0.7-0.1-0.9-0.3c-0.3-0.2-0.5-0.4-0.6-0.6
		l-0.9-1.6c1.1-0.9,2.2-1.6,3.5-2.1c1.3-0.5,2.7-0.7,4.2-0.7c1.1,0,2,0.2,2.9,0.5c0.9,0.3,1.6,0.8,2.2,1.4c0.6,0.6,1,1.3,1.4,2.2
		c0.3,0.8,0.5,1.8,0.5,2.8v11H531.4L531.4,212.4z M525.4,209.2c0.7,0,1.3-0.1,1.8-0.4c0.5-0.2,1-0.6,1.5-1.2v-2.4
		c-1.1,0-1.9,0.1-2.6,0.3c-0.7,0.1-1.2,0.3-1.6,0.5c-0.4,0.2-0.7,0.4-0.8,0.7c-0.2,0.3-0.2,0.5-0.2,0.8c0,0.6,0.2,1,0.5,1.3
		C524.3,209.1,524.8,209.2,525.4,209.2L525.4,209.2z M536.8,212.4v-17.6h3.1c0.3,0,0.5,0,0.7,0.1c0.2,0,0.3,0.1,0.4,0.2
		c0.1,0.1,0.2,0.2,0.3,0.4c0.1,0.2,0.1,0.3,0.2,0.6l0.3,1.6c0.6-1,1.4-1.8,2.2-2.4c0.8-0.6,1.7-0.9,2.6-0.9c0.8,0,1.4,0.2,1.9,0.6
		l-0.7,3.9c0,0.2-0.1,0.4-0.3,0.5c-0.1,0.1-0.3,0.1-0.5,0.1c-0.2,0-0.4,0-0.7-0.1c-0.3-0.1-0.6-0.1-1-0.1c-1.4,0-2.5,0.7-3.3,2.2
		v10.8H536.8L536.8,212.4z M555.5,194.9v17.6h-5.3v-17.6H555.5L555.5,194.9z M556.2,190.1c0,0.4-0.1,0.8-0.3,1.2
		c-0.2,0.4-0.4,0.7-0.7,1c-0.3,0.3-0.6,0.5-1,0.7c-0.4,0.2-0.8,0.2-1.2,0.2c-0.4,0-0.8-0.1-1.2-0.2c-0.4-0.2-0.7-0.4-1-0.7
		c-0.3-0.3-0.5-0.6-0.7-1c-0.2-0.4-0.2-0.8-0.2-1.2c0-0.4,0.1-0.8,0.2-1.2c0.2-0.4,0.4-0.7,0.7-1c0.3-0.3,0.6-0.5,1-0.7
		c0.4-0.2,0.8-0.2,1.2-0.2c0.4,0,0.9,0.1,1.2,0.2c0.4,0.2,0.7,0.4,1,0.7c0.3,0.3,0.5,0.6,0.7,1C556.1,189.2,556.2,189.6,556.2,190.1
		L556.2,190.1z M569.8,198.7c-0.1,0.2-0.3,0.4-0.4,0.5c-0.2,0.1-0.3,0.1-0.6,0.1c-0.2,0-0.5-0.1-0.7-0.2c-0.2-0.1-0.5-0.2-0.8-0.3
		c-0.3-0.1-0.6-0.2-1-0.4c-0.4-0.1-0.8-0.2-1.2-0.2c-0.7,0-1.2,0.1-1.5,0.4c-0.4,0.3-0.5,0.6-0.5,1.1c0,0.3,0.1,0.6,0.4,0.8
		c0.2,0.2,0.5,0.4,0.9,0.6c0.4,0.2,0.8,0.3,1.3,0.5c0.5,0.1,1,0.3,1.5,0.5c0.5,0.2,1,0.4,1.5,0.6c0.5,0.2,0.9,0.5,1.3,0.9
		c0.4,0.4,0.7,0.8,0.9,1.3c0.2,0.5,0.3,1.1,0.3,1.8c0,0.9-0.2,1.7-0.5,2.4c-0.3,0.7-0.8,1.4-1.4,1.9c-0.6,0.5-1.4,0.9-2.3,1.2
		c-0.9,0.3-2,0.4-3.2,0.4c-0.6,0-1.2-0.1-1.8-0.2c-0.6-0.1-1.2-0.3-1.7-0.5c-0.6-0.2-1.1-0.4-1.6-0.7c-0.5-0.3-0.9-0.5-1.2-0.9
		l1.2-1.9c0.1-0.2,0.3-0.4,0.5-0.5c0.2-0.1,0.5-0.2,0.8-0.2c0.3,0,0.6,0.1,0.8,0.2c0.2,0.1,0.5,0.3,0.8,0.4c0.3,0.2,0.6,0.3,1,0.4
		c0.4,0.1,0.9,0.2,1.4,0.2c0.4,0,0.8,0,1-0.1c0.3-0.1,0.5-0.2,0.7-0.3c0.2-0.1,0.3-0.3,0.4-0.5c0.1-0.2,0.1-0.4,0.1-0.6
		c0-0.3-0.1-0.6-0.4-0.9c-0.2-0.2-0.5-0.4-0.9-0.6c-0.4-0.2-0.8-0.3-1.3-0.5c-0.5-0.1-1-0.3-1.5-0.5c-0.5-0.2-1-0.4-1.5-0.7
		c-0.5-0.3-0.9-0.6-1.3-1c-0.4-0.4-0.7-0.9-0.9-1.4c-0.2-0.6-0.4-1.2-0.4-2c0-0.7,0.1-1.5,0.4-2.1c0.3-0.7,0.7-1.3,1.3-1.8
		c0.6-0.5,1.3-0.9,2.2-1.2c0.9-0.3,1.9-0.4,3-0.4c0.6,0,1.2,0.1,1.8,0.2c0.6,0.1,1.1,0.3,1.7,0.5c0.5,0.2,1,0.4,1.4,0.7
		c0.4,0.3,0.8,0.6,1.1,0.9L569.8,198.7L569.8,198.7z M573.3,212.4v-17.6h3.3c0.3,0,0.6,0.1,0.8,0.2c0.2,0.1,0.4,0.4,0.5,0.7l0.3,0.9
		c0.3-0.3,0.6-0.6,0.9-0.8c0.3-0.3,0.7-0.5,1-0.7c0.4-0.2,0.8-0.3,1.2-0.4c0.4-0.1,0.9-0.2,1.4-0.2c1.1,0,1.9,0.3,2.6,0.8
		c0.7,0.5,1.2,1.3,1.6,2.2c0.3-0.5,0.7-1,1.1-1.4c0.4-0.4,0.9-0.7,1.4-0.9c0.5-0.2,1-0.4,1.6-0.5c0.5-0.1,1.1-0.2,1.6-0.2
		c1,0,1.9,0.1,2.7,0.4c0.8,0.3,1.4,0.7,2,1.3c0.5,0.6,0.9,1.3,1.2,2.1c0.3,0.8,0.4,1.8,0.4,2.8v11.2h-5.3v-11.2
		c0-1.8-0.8-2.7-2.3-2.7c-0.7,0-1.3,0.2-1.8,0.7c-0.5,0.5-0.7,1.1-0.7,2v11.2h-5.3v-11.2c0-1-0.2-1.7-0.6-2.1
		c-0.4-0.4-1-0.6-1.7-0.6c-0.5,0-0.9,0.1-1.3,0.3c-0.4,0.2-0.8,0.5-1.2,0.9v12.7H573.3L573.3,212.4z M613.9,212.4
		c-0.5,0-0.9-0.1-1.1-0.2c-0.3-0.1-0.5-0.4-0.6-0.8l-0.4-1c-0.4,0.4-0.9,0.7-1.3,1c-0.4,0.3-0.8,0.5-1.3,0.7
		c-0.4,0.2-0.9,0.3-1.4,0.4c-0.5,0.1-1,0.1-1.6,0.1c-0.8,0-1.5-0.1-2.2-0.3c-0.7-0.2-1.2-0.5-1.7-0.9c-0.5-0.4-0.8-0.9-1.1-1.5
		c-0.2-0.6-0.4-1.3-0.4-2.1c0-0.6,0.2-1.3,0.5-1.9c0.3-0.7,0.9-1.3,1.6-1.8c0.8-0.5,1.8-1,3.2-1.3c1.3-0.4,3-0.6,5-0.6v-0.7
		c0-1-0.2-1.8-0.6-2.2c-0.4-0.5-1-0.7-1.8-0.7c-0.6,0-1.1,0.1-1.5,0.2c-0.4,0.1-0.7,0.3-1.1,0.5c-0.3,0.2-0.6,0.3-0.9,0.5
		c-0.3,0.1-0.6,0.2-1.1,0.2c-0.4,0-0.7-0.1-0.9-0.3c-0.3-0.2-0.5-0.4-0.6-0.6l-0.9-1.6c1.1-0.9,2.2-1.6,3.5-2.1
		c1.3-0.5,2.7-0.7,4.2-0.7c1.1,0,2,0.2,2.9,0.5c0.9,0.3,1.6,0.8,2.2,1.4c0.6,0.6,1,1.3,1.4,2.2c0.3,0.8,0.5,1.8,0.5,2.8v11H613.9
		L613.9,212.4z M607.8,209.2c0.7,0,1.3-0.1,1.8-0.4c0.5-0.2,1-0.6,1.5-1.2v-2.4c-1.1,0-1.9,0.1-2.6,0.3c-0.7,0.1-1.2,0.3-1.6,0.5
		c-0.4,0.2-0.7,0.4-0.8,0.7c-0.2,0.3-0.2,0.5-0.2,0.8c0,0.6,0.2,1,0.5,1.3C606.7,209.1,607.2,209.2,607.8,209.2L607.8,209.2z
		 M615.9,187.5l-4.4,4.5c-0.3,0.3-0.5,0.4-0.7,0.5c-0.2,0.1-0.6,0.2-0.9,0.2h-3.2l2.3-4.2c0.2-0.3,0.4-0.6,0.7-0.8
		c0.3-0.2,0.7-0.3,1.2-0.3H615.9L615.9,187.5z M625.5,212.7c-0.8,0-1.6-0.1-2.2-0.4c-0.6-0.2-1.2-0.6-1.6-1c-0.4-0.4-0.8-1-1-1.6
		c-0.2-0.6-0.3-1.3-0.3-2.1v-9.1h-1.5c-0.3,0-0.5-0.1-0.7-0.3c-0.2-0.2-0.3-0.4-0.3-0.8v-2.1l2.8-0.5l1-4.3c0.1-0.5,0.5-0.8,1.2-0.8
		h2.7v5.1h4.3v3.6h-4.3v8.7c0,0.4,0.1,0.7,0.3,1c0.2,0.3,0.5,0.4,0.9,0.4c0.2,0,0.4,0,0.5-0.1c0.1,0,0.2-0.1,0.3-0.1
		c0.1-0.1,0.2-0.1,0.3-0.1c0.1,0,0.2-0.1,0.3-0.1c0.2,0,0.3,0,0.4,0.1c0.1,0.1,0.2,0.2,0.3,0.3l1.6,2.5c-0.7,0.5-1.4,0.9-2.3,1.1
		C627.2,212.6,626.4,212.7,625.5,212.7L625.5,212.7z"/>
	<path class="st1" d="M511.2,163.9V96.6h23.2c4.4,0,8.2,0.4,11.3,1.3c3.1,0.8,5.7,2,7.7,3.6c2,1.6,3.5,3.4,4.4,5.6
		c0.9,2.2,1.4,4.7,1.4,7.4c0,1.6-0.2,3.1-0.7,4.5c-0.5,1.4-1.2,2.8-2.2,4c-1,1.3-2.2,2.4-3.7,3.4c-1.5,1-3.3,1.9-5.4,2.6
		c9.2,2.1,13.9,7.1,13.9,15c0,2.9-0.5,5.5-1.6,7.9c-1.1,2.4-2.7,4.5-4.7,6.2c-2.1,1.8-4.6,3.1-7.7,4.1c-3,1-6.5,1.5-10.4,1.5H511.2
		L511.2,163.9z M342.7,138.7v24.7h-15.5V96.6h21.8c4.8,0,9,0.5,12.4,1.5c3.4,1,6.2,2.4,8.4,4.2c2.2,1.8,3.7,3.9,4.7,6.3
		c1,2.4,1.5,5,1.5,7.9c0,2.2-0.3,4.2-0.9,6.1c-0.6,1.9-1.4,3.7-2.6,5.3c-1.1,1.6-2.6,3.1-4.2,4.4c-1.7,1.3-3.6,2.3-5.8,3.2
		c1,0.5,2,1.2,2.9,1.9c0.9,0.8,1.7,1.7,2.4,2.8l14.2,23.3h-14c-2.6,0-4.5-1-5.6-2.9l-11.1-19.4c-0.5-0.9-1.1-1.5-1.7-1.8
		c-0.7-0.4-1.6-0.6-2.8-0.6H342.7L342.7,138.7z M342.7,128h6.2c2.1,0,3.9-0.3,5.4-0.8c1.5-0.5,2.7-1.3,3.6-2.2
		c1-0.9,1.6-2.1,2.1-3.3c0.4-1.3,0.6-2.6,0.6-4.1c0-2.9-0.9-5.2-2.9-6.9c-1.9-1.7-4.9-2.5-8.9-2.5h-6.2V128L342.7,128z M430.8,146.1
		c0.4,0,0.7,0.1,1.1,0.2c0.4,0.1,0.7,0.4,1.1,0.7l6.1,6.5c-2.7,3.5-6.1,6.2-10.1,8c-4.1,1.8-8.9,2.7-14.4,2.7
		c-5.1,0-9.6-0.9-13.6-2.6c-4-1.7-7.4-4.1-10.2-7.2c-2.8-3-5-6.7-6.5-10.8c-1.5-4.2-2.2-8.7-2.2-13.6c0-5,0.9-9.6,2.6-13.8
		c1.7-4.2,4.1-7.8,7.2-10.8c3.1-3,6.7-5.4,11-7.1c4.3-1.7,9-2.5,14.2-2.5c2.5,0,4.9,0.2,7.1,0.7c2.2,0.4,4.3,1.1,6.2,1.8
		c1.9,0.8,3.7,1.7,5.3,2.8c1.6,1.1,3.1,2.3,4.3,3.6l-5.2,7c-0.3,0.4-0.7,0.8-1.2,1.2c-0.5,0.4-1.1,0.5-1.9,0.5
		c-0.5,0-1.1-0.1-1.6-0.4c-0.5-0.2-1-0.6-1.6-0.9c-0.6-0.4-1.1-0.7-1.8-1.1c-0.7-0.4-1.4-0.8-2.3-1.1c-0.9-0.4-2-0.6-3.2-0.9
		c-1.2-0.2-2.6-0.4-4.3-0.4c-2.8,0-5.4,0.5-7.7,1.5c-2.3,1-4.3,2.4-6,4.3c-1.7,1.8-3,4.1-3.9,6.7c-0.9,2.6-1.4,5.6-1.4,8.9
		c0,3.4,0.5,6.5,1.4,9.1c0.9,2.7,2.2,4.9,3.8,6.7c1.6,1.8,3.5,3.2,5.6,4.2c2.1,1,4.4,1.4,6.9,1.4c1.4,0,2.7-0.1,3.9-0.2
		c1.2-0.1,2.3-0.4,3.2-0.7c1-0.3,1.9-0.8,2.8-1.3c0.9-0.5,1.8-1.2,2.7-2c0.4-0.3,0.8-0.6,1.2-0.8
		C429.9,146.2,430.4,146.1,430.8,146.1L430.8,146.1z M491.1,146.1c0.4,0,0.7,0.1,1.1,0.2c0.4,0.1,0.7,0.4,1.1,0.7l6.1,6.5
		c-2.7,3.5-6.1,6.2-10.1,8c-4.1,1.8-8.9,2.7-14.4,2.7c-5.1,0-9.6-0.9-13.6-2.6c-4-1.7-7.4-4.1-10.2-7.2c-2.8-3-5-6.7-6.5-10.8
		c-1.5-4.2-2.2-8.7-2.2-13.6c0-5,0.9-9.6,2.6-13.8c1.7-4.2,4.1-7.8,7.2-10.8c3.1-3,6.7-5.4,11-7.1c4.3-1.7,9-2.5,14.2-2.5
		c2.5,0,4.9,0.2,7.1,0.7c2.2,0.4,4.3,1.1,6.2,1.8c1.9,0.8,3.7,1.7,5.3,2.8c1.6,1.1,3.1,2.3,4.3,3.6l-5.2,7c-0.3,0.4-0.7,0.8-1.2,1.2
		c-0.5,0.4-1.1,0.5-1.9,0.5c-0.6,0-1.1-0.1-1.6-0.4c-0.5-0.2-1-0.6-1.6-0.9c-0.5-0.4-1.1-0.7-1.8-1.1c-0.7-0.4-1.4-0.8-2.3-1.1
		c-0.9-0.4-2-0.6-3.2-0.9c-1.2-0.2-2.6-0.4-4.3-0.4c-2.8,0-5.4,0.5-7.7,1.5c-2.3,1-4.3,2.4-6,4.3c-1.7,1.8-3,4.1-3.9,6.7
		c-0.9,2.6-1.4,5.6-1.4,8.9c0,3.4,0.5,6.5,1.4,9.1c0.9,2.7,2.2,4.9,3.8,6.7c1.6,1.8,3.5,3.2,5.6,4.2c2.1,1,4.4,1.4,6.9,1.4
		c1.4,0,2.7-0.1,3.9-0.2c1.2-0.1,2.3-0.4,3.2-0.7c1-0.3,1.9-0.8,2.8-1.3c0.9-0.5,1.8-1.2,2.7-2c0.4-0.3,0.8-0.6,1.2-0.8
		C490.2,146.2,490.7,146.1,491.1,146.1L491.1,146.1z M523.7,134.4v19.7h12.7c2.3,0,4.3-0.3,5.8-0.8c1.6-0.6,2.8-1.3,3.8-2.2
		c0.9-0.9,1.6-2,2-3.3c0.4-1.2,0.6-2.6,0.6-4c0-1.5-0.2-2.8-0.7-3.9c-0.5-1.2-1.2-2.2-2.2-3c-1-0.8-2.3-1.4-3.8-1.9
		c-1.6-0.4-3.4-0.7-5.6-0.7H523.7L523.7,134.4z M523.7,125.8h10c4.2,0,7.5-0.8,9.7-2.3c2.2-1.5,3.3-4,3.3-7.4c0-3.5-1-6-3-7.5
		c-2-1.5-5.1-2.2-9.3-2.2h-10.7V125.8L523.7,125.8z M581.2,137.6v26.3h-12.5V96.6h20.5c4.6,0,8.5,0.5,11.8,1.4c3.3,0.9,6,2.3,8,4
		c2.1,1.7,3.6,3.7,4.6,6.1c1,2.4,1.5,5,1.5,7.8c0,2.3-0.3,4.4-1,6.4c-0.7,2-1.6,3.8-2.9,5.5c-1.3,1.6-2.8,3.1-4.6,4.3
		c-1.8,1.2-4,2.2-6.3,3c1.6,0.9,2.9,2.2,4.1,3.9l16.8,24.8H610c-1.1,0-2-0.2-2.8-0.7c-0.8-0.4-1.4-1.1-1.9-1.9l-14.1-21.5
		c-0.5-0.8-1.1-1.4-1.7-1.7c-0.6-0.3-1.6-0.5-2.8-0.5H581.2L581.2,137.6z M581.2,128.6h7.8c2.4,0,4.4-0.3,6.2-0.9
		c1.8-0.6,3.2-1.4,4.3-2.4c1.1-1,2-2.3,2.5-3.7c0.6-1.4,0.8-3,0.8-4.7c0-3.4-1.1-6-3.4-7.9c-2.2-1.8-5.7-2.7-10.3-2.7h-8V128.6
		L581.2,128.6z M684.9,163.9h-9.7c-1.1,0-2-0.3-2.7-0.8c-0.7-0.5-1.2-1.2-1.5-2l-5-13.7h-27.9l-5,13.7c-0.2,0.7-0.7,1.4-1.5,2
		c-0.7,0.6-1.6,0.9-2.7,0.9h-9.7l26.4-67.2h12.8L684.9,163.9L684.9,163.9z M641.4,138.5h21.4l-8.2-22.4c-0.4-1-0.8-2.2-1.2-3.5
		c-0.5-1.3-0.9-2.8-1.3-4.4c-0.4,1.6-0.9,3.1-1.3,4.4c-0.4,1.4-0.8,2.6-1.2,3.6L641.4,138.5L641.4,138.5z M724.4,108.9
		c-0.3,0.7-0.7,1.2-1.2,1.4c-0.5,0.3-1,0.4-1.6,0.4c-0.6,0-1.3-0.2-2.1-0.7c-0.8-0.5-1.7-1-2.7-1.6c-1.1-0.6-2.3-1.1-3.7-1.6
		c-1.4-0.5-3.1-0.7-5-0.7c-1.7,0-3.2,0.2-4.5,0.6c-1.3,0.4-2.4,1-3.3,1.8c-0.9,0.7-1.5,1.6-2,2.7c-0.4,1-0.7,2.2-0.7,3.4
		c0,1.6,0.5,2.9,1.3,4c0.9,1.1,2,2,3.5,2.7c1.5,0.7,3.1,1.4,5,2c1.9,0.6,3.8,1.2,5.7,1.9c1.9,0.7,3.8,1.4,5.7,2.3
		c1.9,0.9,3.5,2,5,3.3c1.5,1.3,2.6,3,3.5,5c0.9,2,1.3,4.3,1.3,7.1c0,3-0.5,5.9-1.6,8.5c-1,2.6-2.6,5-4.6,6.9c-2,2-4.4,3.5-7.3,4.6
		c-2.9,1.1-6.2,1.7-9.9,1.7c-2.1,0-4.2-0.2-6.3-0.6c-2.1-0.4-4.1-1-6-1.8c-1.9-0.8-3.7-1.7-5.3-2.8c-1.7-1.1-3.1-2.3-4.4-3.6l3.6-6
		c0.3-0.4,0.8-0.8,1.2-1.1c0.5-0.3,1-0.4,1.6-0.4c0.8,0,1.6,0.3,2.5,0.9c0.9,0.6,2,1.3,3.2,2.1c1.2,0.8,2.7,1.5,4.3,2.1
		c1.7,0.6,3.6,1,6,1c3.6,0,6.3-0.9,8.3-2.5c2-1.7,2.9-4.1,2.9-7.3c0-1.8-0.4-3.2-1.3-4.3c-0.9-1.1-2.1-2.1-3.5-2.8
		c-1.5-0.8-3.1-1.4-5-1.9c-1.9-0.5-3.8-1.1-5.7-1.7c-1.9-0.6-3.8-1.4-5.7-2.2c-1.9-0.9-3.5-2-5-3.4c-1.5-1.4-2.6-3.1-3.5-5.2
		c-0.9-2.1-1.3-4.7-1.3-7.7c0-2.5,0.5-4.8,1.5-7.2c1-2.3,2.4-4.4,4.3-6.2c1.9-1.8,4.2-3.2,6.9-4.3c2.7-1.1,5.8-1.6,9.3-1.6
		c4,0,7.6,0.6,11,1.9c3.3,1.2,6.2,3,8.6,5.2L724.4,108.9L724.4,108.9z M748.9,163.9h-12.6V96.6h12.6V163.9L748.9,163.9z
		 M773.1,153.6H800v10.3h-39.4V96.6h12.5V153.6L773.1,153.6z"/>
	<path class="st2" d="M61.7,104.1c31.4-9.4,224.6-36,224.6-103.7c1,2.3,2.6,5.9,4.1,10.4c3.4,61.7-65,116.2-156.9,111.5
		C-21,114.6,8.8,218.9,67.2,216.9C12.7,231.1-49.3,137.2,61.7,104.1L61.7,104.1z M59.1,205c2.1,4.2,4.8,8.2,8.1,12
		C63.5,212.8,60.8,208.8,59.1,205L59.1,205z"/>
	<path class="st3" d="M290.4,10.9c2.9,4,59.5,146.6-171.4,151.5c-52.2,2.3-78.9,24-51.8,54.6c-58.3,2-88.2-102.3,66.4-94.5
		C225.4,127.1,293.9,72.6,290.4,10.9L290.4,10.9z"/>
	<path class="st4" d="M198.3,54c8.5,4.1,14.8,12.1,15.7,21.6c0.3,2.6,0.1,5.2-0.4,7.7c-0.5,2.5-1.4,4.8-2.5,7.1
		c-2.4,4.4-5.9,8.1-10.2,10.7c-3.5,2.1-7.6,3.6-11.9,4.1c1.4,2.4,3.4,4,5.6,5.6c4.2,3.1,8.6,5.9,12.8,9c2,1.5,4,3.1,5.8,4.8
		c9.7,9.1,8.5,14.5,5.6,28c-2,9.1-3.7,18.2-7.1,27c-2.5,6.5-5.9,12.9-11.2,20.1c-1.3,1.8-2.5,2.6-4,2.8c-4.3,0.7-6.4,0.1-8.4-5.2
		c-1.4-3.8-2.5-7.7-3.4-11.5c-1.7-7.6-2.2-14.2-1.5-21.9c0.6-7.1,2.1-13.5,4.4-20.2c-5.6-2.1-7.9-3.8-11.8-8.4h-1
		c-4,5-10.1,7.4-16.2,8.9v82.3c0,0.5-0.3,0.9-0.8,0.9h-13.8c-0.5,0-0.9-0.3-0.9-0.8v-41.4c-4.8-3.2-8.3-8.3-11.5-13
		c-3.6-5.2-3.4-4.5-9.4-6.3c-18.7-5.5-12.9-13.8-27.9-27.8c-4.4-4.1-8.7-7-14.8-9.8c-1.7-0.8-2.4-2.5-1.9-4c0.4-1.4,2-2.1,4.3-2.6
		c4-1,9.8-1.1,11.9-1.1l49.3,0v-12.4c-8.6-5.3-15.1-15.6-15.6-23.2c-5.8,0.4-11.7-1.1-15.3-7.3c-11,6.4-39.2,2.1-46.9-3.6
		c-1.9-1.4-2.8-2.4-2.6-5l0.2-2.9c0.2-2.9,0.4-3.3,3.2-3.8c2.6-0.5,5.2-1,7.8-1.7c13.7-3.5,30.9-10.5,43.5-17.4
		c6.9-3.8,13.5-2,19.8,2c3,1.9,5.4,3.9,7.7,6.2l14.3,16.8c0.7-2.5,2.3-5.2,3.8-6.9c2-2.4,4.4-4.5,7.1-6.1
		C178.6,50.3,189.4,49.8,198.3,54L198.3,54z"/>
	<path class="st5" d="M208.2,122.4h-50.3c-0.5,0-0.8-0.4-0.8-0.8l0.1-53.2l-5.3-6.2v65h61.6C212,125.7,210.3,124.1,208.2,122.4
		L208.2,122.4z M144.8,225.9h5.3v-97.1h-59c2.2,1.5,4.4,3.2,6.4,4.9H144c0.5,0,0.8,0.4,0.8,0.9V225.9L144.8,225.9z M151.8,225.9h5.2
		v-91.4c0-0.5,0.3-0.8,0.8-0.8h60.4c-0.8-1.8-1.9-3.4-3.2-4.9h-63.2V225.9L151.8,225.9z M150.2,60.1l-5.3-6.3v67.7
		c0,0.4-0.4,0.8-0.8,0.8c-17.2,0-34.5,0-51.7,0c-2.6,0-5.2,0.2-7.8,0.6c-2.5,0.5-2.1,0.7-0.1,1.7c1.4,0.7,2.8,1.5,4.1,2.3l61.6,0
		V60.1L150.2,60.1z"/>
	<path class="st6" d="M184.5,135.4c2.1,1.9,4.4,3.3,8.6,4.8c0.4,0.1,0.6,0.6,0.5,1l0,0c-3.6,10.1-5.1,19.7-4.8,29.3
		c0.4,9.6,2.3,19.2,6.7,29c1.2,2.7,2.9,0.4,4.1-1.2c5-6.9,8.2-13.1,10.6-19.3c3.4-8.7,5-17.7,7-26.7c1.7-7.6,2.8-12.5,1.5-17H184.5
		L184.5,135.4z M206.1,120.8c-4.1-3-8.4-5.8-12.5-8.8c-2.6-1.9-4.8-3.7-6.2-6.6c-0.8-1.7-1.2-3.4-1.2-5.3c0-4,1.5-15.8,1.5-15.8
		c0-0.3,0.3-0.6,0.6-0.7l3.8-1.5l-1.5-1.8c-0.7-0.8-0.4-0.9-0.6-2c-0.5-3-1.8-5.4-5-5.8c-2.6-0.4-4.9,1-6.8,3.2
		c-2.1,2.6-4.7,3.2-7,3.1c-1.6-0.1-3-0.4-4.3-1c-1.6-0.7-3-1.9-4.3-3.4l-3.9-4.3v50.6H206.1L206.1,120.8z M143.2,52.3
		c-2-1.9-4.1-3.7-6.6-5.3c-6.1-4-11.9-5.6-18.7-1.9c-12.7,6.9-29.6,13.8-43.4,17.3c-2.7,0.7-5.4,1.2-8.1,1.7c-2.7,0.5-1.7,2-0.4,3.4
		c7,6.9,36.7,10.7,46.1,4.4c1.1-0.7,2.1-0.8,2.6,0.5c2.6,6.2,10.8,8.4,17.3,7.4c0.6-0.1,0.8,0.5,0.8,1c0.6,6.1,4.3,14.8,10.3,19.4
		V52.3L143.2,52.3z M172.8,135.4h-14.1v7.3C163.8,141.3,169.1,139.3,172.8,135.4L172.8,135.4z M143.2,178.3v-43H99.4
		c13.4,11.9,8.7,20.7,25.2,26.1c6.6,2.2,6.8,0.7,10.8,6.7C137.8,171.8,140.2,175.3,143.2,178.3L143.2,178.3z"/>
	<path class="st5" d="M188.4,103.7c3.3-0.3,6.5-1.2,9.4-2.6l-4.5-7.8c-1.7,0.8-3.5,1.3-5.3,1.6C187.8,97.8,187.3,101,188.4,103.7
		L188.4,103.7z M188.2,93.3c1.5-0.2,3-0.7,4.3-1.3l-3.5-6.1C188.8,87.5,188.5,90.4,188.2,93.3L188.2,93.3z M190.1,84.6l3.8,6.7
		c4.4-2.5,7.4-7.1,7.7-12.2l-10,0l0,0.1l2.3,2.7c0.4,0.4,0.2,1.1-0.3,1.3L190.1,84.6L190.1,84.6z M191.3,77.5l10.3,0
		c-0.3-5-3.3-9.6-7.7-12.2l-4.6,7.9C190.3,74.4,191,75.9,191.3,77.5L191.3,77.5z M188.2,72.2l4.4-7.5c-4.4-2-9.6-2-14,0l3.7,6.5
		c0.9-0.2,1.8-0.3,2.8-0.1C186.3,71.1,187.3,71.5,188.2,72.2L188.2,72.2z M180.8,71.6l-3.6-6.3c-4.4,2.6-7.4,6.7-7.7,11.9l0,0.1
		c3.1,0.5,5.6-0.4,7.6-2.8C178.2,73.3,179.4,72.2,180.8,71.6L180.8,71.6z M167.9,76.7c0-0.5,0.1-0.7,0.2-1.2c0.8-4.9,3.9-9,8.3-11.5
		l-4.5-7.8c-3.8,2.1-7,5.1-9.4,8.7c-0.7,1-1.7,3.3-2.1,4.9C162,71.7,165.1,75.5,167.9,76.7L167.9,76.7z M173.3,55.5l4.5,7.8
		c4.9-2.3,10.7-2.3,15.6,0l4.5-7.8C190.2,51.8,180.9,51.8,173.3,55.5L173.3,55.5z M194.7,92.6l4.5,7.8c7.8-4.3,13.1-12.3,13.4-21.3
		h-9.4C202.9,84.8,199.6,89.8,194.7,92.6L194.7,92.6z M199.2,56.2l-4.5,7.8c4.9,2.9,8.2,7.8,8.5,13.5h9.4
		C212.3,68.5,207,60.5,199.2,56.2L199.2,56.2z"/>
</g>
</svg>
