<?xml version="1.0" encoding="utf-8"?>
<!-- Generator: Adobe Illustrator 24.1.2, SVG Export Plug-In . SVG Version: 6.00 Build 0)  -->
<svg version="1.1" id="Layer_1" xmlns="http://www.w3.org/2000/svg" xmlns:xlink="http://www.w3.org/1999/xlink" x="0px" y="0px"
	 viewBox="0 0 600 457" style="enable-background:new 0 0 600 457;" xml:space="preserve">
<style type="text/css">
	.st0{fill-rule:evenodd;clip-rule:evenodd;fill:#FDC800;}
	.st1{fill-rule:evenodd;clip-rule:evenodd;fill:#006036;}
	.st2{fill-rule:evenodd;clip-rule:evenodd;fill:#004058;}
	.st3{fill-rule:evenodd;clip-rule:evenodd;fill:#B8D0DC;}
	.st4{fill-rule:evenodd;clip-rule:evenodd;fill:#FFFFFF;}
</style>
<g>
	<path class="st0" d="M124,208.4c63-18.9,451.3-72.3,451.3-208.2c2.1,4.5,5.1,11.7,8.1,21c6.9,124.2-130.8,233.4-315.3,224.1
		C-42.6,229.7,17.5,439.1,134.5,435.2C25.6,463.4-99,274.7,124,208.4L124,208.4z M118.9,410.9c4.2,8.4,9.6,16.5,16.2,24
		C127.6,426.5,122.2,418.7,118.9,410.9L118.9,410.9z"/>
	<path class="st1" d="M583.6,20.9c5.7,7.8,119.4,294.6-344.4,304.2c-104.7,4.5-158.4,48.3-104.1,109.5
		C17.8,438.8-42.3,229.1,268.6,244.7C453.1,254.3,590.5,145.1,583.6,20.9L583.6,20.9z"/>
	<path class="st2" d="M398.5,107.6c17.1,8.1,29.7,24.3,31.5,43.5c0.6,5.1,0.3,10.5-0.6,15.6c-0.9,5.1-2.7,9.6-5.1,14.1
		c-4.8,9-12,16.2-20.4,21.6c-7.2,4.2-15.3,7.2-24,8.1c2.7,4.8,6.9,8.1,11.1,11.1c8.4,6,17.4,12,25.8,18.3c4.2,3,8.1,6.3,11.7,9.6
		c19.5,18.3,17.1,29.1,11.1,56.4c-4.2,18.3-7.5,36.6-14.4,54.3c-5.1,12.9-12,25.8-22.5,40.5c-2.7,3.6-5.1,5.1-8.1,5.7
		c-8.7,1.2-12.9,0.3-16.8-10.5c-2.7-7.8-5.1-15.3-6.9-23.1c-3.3-15.3-4.5-28.5-3-43.8c1.2-14.1,4.2-27,9-40.5
		c-11.1-4.2-15.9-7.5-23.7-16.8h-2.1c-8.1,10.2-20.4,14.7-32.7,18v165.6c0,0.9-0.6,1.8-1.5,1.8h-27.6c-0.9,0-1.8-0.6-1.8-1.5v-83.1
		c-9.6-6.3-16.8-16.8-23.1-26.1c-7.2-10.5-6.9-9-18.9-12.6c-37.5-11.1-26.1-27.9-56.1-55.8c-8.7-8.1-17.4-14.1-29.7-19.5
		c-3.3-1.5-4.8-5.1-3.9-8.1c0.9-2.7,4.2-4.2,8.7-5.4c8.1-2.1,19.5-2.4,23.7-2.4h99v-24.9c-17.1-10.5-30.3-31.5-31.2-46.8
		c-11.7,0.9-23.4-2.1-30.9-14.7c-22.2,12.9-78.9,4.2-94.2-7.2c-3.9-2.7-5.4-4.8-5.1-10.2l0.3-6c0.3-5.7,0.9-6.6,6.3-7.8
		c5.1-0.9,10.5-2.1,15.6-3.3c27.6-6.9,62.1-21,87.6-35.1c13.8-7.8,27-4.2,39.9,4.2c6,3.9,10.8,7.8,15.3,12.3l28.8,33.9
		c1.2-4.8,4.8-10.5,7.5-13.8c3.9-4.8,9-9,14.4-12.3C358.9,100.1,380.8,99.2,398.5,107.6L398.5,107.6z"/>
	<path class="st3" d="M418.3,245H317.2c-0.9,0-1.5-0.6-1.5-1.8l0.3-106.8l-10.8-12.6v130.5h123.9C426.1,251.6,422.5,248.6,418.3,245
		L418.3,245z M291.1,453.2h10.8v-195H183.1c4.2,3,8.7,6.3,12.9,9.9h93.3c0.9,0,1.5,0.9,1.5,1.8v183.3H291.1z M305.2,453.2h10.5
		V269.6c0-0.9,0.6-1.5,1.5-1.5h121.2c-1.5-3.6-3.9-6.9-6.6-9.9H304.9v195H305.2z M301.9,119.9l-10.8-12.6v136.2
		c0,0.9-0.6,1.5-1.5,1.5c-34.5,0-69.3,0-103.8,0c-5.4,0-10.5,0.3-15.6,1.2c-4.8,0.9-4.2,1.5,0,3.6c3,1.5,5.7,3,8.4,4.8h123.6V119.9
		H301.9z"/>
	<path class="st4" d="M370.9,271.1c4.2,3.9,8.7,6.6,17.4,9.6c0.9,0.3,1.2,1.2,0.9,2.1l0,0c-7.2,20.4-10.2,39.6-9.6,58.8
		c0.6,19.2,4.8,38.7,13.5,58.5c2.4,5.4,6,0.9,8.4-2.4c9.9-13.8,16.5-26.4,21.3-38.7c6.6-17.4,10.2-35.4,14.1-53.7
		c3.3-15.3,5.7-25.2,3-34.2H370.9L370.9,271.1z M414.1,242c-8.4-6-16.8-11.7-25.2-17.7c-5.1-3.6-9.6-7.5-12.6-13.2
		c-1.8-3.3-2.4-6.9-2.4-10.5c0-8.1,3-31.8,3-31.8c0-0.6,0.6-1.2,1.2-1.5l7.8-3l-3-3.6c-1.5-1.5-0.9-1.8-1.2-3.9
		c-0.9-6-3.6-10.8-9.9-11.7c-5.4-0.6-9.9,2.1-13.5,6.6c-4.2,5.1-9.6,6.3-14.1,6.3c-3.3,0-6-0.9-8.4-2.1c-3.3-1.5-6-3.9-8.7-6.9
		l-7.8-8.7V242L414.1,242L414.1,242z M287.8,104c-3.9-3.9-8.1-7.5-13.2-10.8c-12.3-8.1-24-11.4-37.5-3.9
		c-25.5,13.8-59.4,27.6-87.3,34.8c-5.4,1.5-10.8,2.4-16.5,3.6c-5.4,1.2-3.6,4.2-0.6,6.9c14.1,13.8,73.8,21.3,92.7,9
		c2.1-1.5,4.2-1.5,5.4,0.9c5.1,12.6,21.6,16.8,34.8,15c1.2-0.3,1.5,0.9,1.5,2.1c1.2,12.3,8.7,29.7,20.7,39V104L287.8,104z
		 M347.2,271.1h-28.5v14.7C329.2,283.1,339.7,279.2,347.2,271.1L347.2,271.1z M287.8,357.5v-86.4h-87.9c27,24,17.4,41.4,50.7,52.5
		c13.2,4.5,13.5,1.5,21.6,13.5C277,344.3,281.8,351.5,287.8,357.5L287.8,357.5z"/>
	<path class="st3" d="M378.7,207.5c6.6-0.6,12.9-2.4,18.9-5.4l-9-15.6c-3.3,1.5-6.9,2.7-10.5,3C377.5,195.5,376.6,202.1,378.7,207.5
		L378.7,207.5z M378.4,186.5c3-0.6,6-1.5,8.7-2.7l-7.2-12.3C379.6,175.1,378.7,180.8,378.4,186.5L378.4,186.5z M382,169.1l7.8,13.5
		c8.7-5.1,15-14.1,15.6-24.6h-20.1v0.3l4.5,5.4c0.6,0.9,0.6,2.1-0.6,2.7L382,169.1L382,169.1z M384.7,155h20.7
		c-0.6-10.2-6.6-19.5-15.6-24.6l-9.3,15.9C382.6,148.7,383.8,151.7,384.7,155L384.7,155z M378.1,144.2l8.7-15
		c-8.7-4.2-19.2-3.9-28.2,0l7.5,12.9c1.8-0.3,3.6-0.6,5.7-0.3C374.5,142.1,376.6,143,378.1,144.2L378.1,144.2z M363.4,143l-7.2-12.6
		c-9,5.4-14.7,13.5-15.3,24v0.3c6.3,0.9,11.1-0.9,15.3-5.7C358,146.3,360.7,144.2,363.4,143L363.4,143z M337.6,153.2
		c0-1.2,0-1.5,0.3-2.4c1.8-9.6,7.8-18,16.5-23.1l-9-15.6c-7.5,4.2-14.1,10.2-18.9,17.4c-1.2,2.1-3.3,6.6-4.2,9.9
		C325.6,143.3,331.9,150.8,337.6,153.2L337.6,153.2z M348.4,110.6l9,15.6c9.9-4.5,21.6-4.5,31.2,0l9-15.6
		C382.3,103.4,363.7,103.1,348.4,110.6L348.4,110.6z M391.3,185.3l9,15.6c15.6-8.7,26.4-24.6,27-42.9h-18.9
		C407.8,169.4,401.2,179.6,391.3,185.3L391.3,185.3z M400.3,112.1l-9,15.6c9.9,5.7,16.5,15.6,17.1,27.3h18.9
		C426.7,136.7,416.2,120.8,400.3,112.1L400.3,112.1z"/>
</g>
</svg>
