<?xml version="1.0" encoding="utf-8"?>
<!-- Generator: Adobe Illustrator 24.1.2, SVG Export Plug-In . SVG Version: 6.00 Build 0)  -->
<svg version="1.1" id="Layer_1" xmlns="http://www.w3.org/2000/svg" xmlns:xlink="http://www.w3.org/1999/xlink" x="0px" y="0px"
	 viewBox="0 0 1500 623" style="enable-background:new 0 0 1500 623;" xml:space="preserve">
<style type="text/css">
	.st0{fill-rule:evenodd;clip-rule:evenodd;fill:#FDC800;}
	.st1{fill-rule:evenodd;clip-rule:evenodd;fill:#006036;}
	.st2{fill-rule:evenodd;clip-rule:evenodd;fill:#004058;}
	.st3{fill-rule:evenodd;clip-rule:evenodd;fill:#B8D0DC;}
	.st4{fill-rule:evenodd;clip-rule:evenodd;fill:#FFFFFF;}
	.st5{fill:#004159;}
	.st6{fill:#007437;}
</style>
<g>
	<g>
		<path class="st0" d="M169,284.5C254.9,259,783.9,186,783.9,0.7c2.8,6.3,7.2,16.2,11.2,28.6c9.3,169-178,318-429.5,305.3
			C-57.5,313.1,24.2,598.8,184,593.3C34.8,632-134.9,375,169,284.5L169,284.5z M161.7,560.5c5.8,11.5,13.3,22.6,22.2,32.7
			C173.8,581.9,166.5,571,161.7,560.5L161.7,560.5z"/>
		<path class="st1" d="M795.1,29.3C803,40.1,958,430.6,325.8,444c-142.9,6.3-216,65.7-141.8,149.4
			C24.2,598.8-57.7,313.1,365.5,334.6C617.1,347.3,804.5,198.3,795.1,29.3L795.1,29.3z"/>
		<path class="st2" d="M543,147.3c23.3,11.1,40.4,33.1,43,59.1c0.7,7,0.4,14.3-1,21.2c-1.3,6.7-3.6,13.3-6.9,19.4
			c-6.4,12.1-16.2,22.3-27.9,29.3c-9.6,5.8-20.7,9.8-32.7,11.2c3.8,6.6,9.2,10.9,15.3,15.3c11.5,8.3,23.6,16.2,35,24.8
			c5.5,4.2,10.9,8.6,16.1,13.3c26.7,25,23.3,39.7,15.2,76.6c-5.5,25-10.2,49.8-19.4,73.8c-6.9,17.7-16.2,35.3-30.5,55
			c-3.6,5.1-7,7-11.1,7.6c-11.8,1.8-17.5,0.3-22.9-14.3c-3.8-10.5-6.9-21-9.2-31.7c-4.5-20.7-6-39-4.2-59.8
			c1.6-19.4,5.8-36.9,12.1-55.3c-15.2-5.7-21.7-10.4-32.2-22.9h-2.8c-11.1,13.9-27.7,20.1-44.4,24.5V620c0,1.3-0.9,2.3-2.2,2.3
			h-37.6c-1.3,0-2.3-0.9-2.3-2.2V506.9c-13.1-8.8-22.8-22.8-31.5-35.5c-9.8-14.3-9.3-12.4-25.7-17.2c-51.2-15-35.5-37.9-76.5-76
			c-12-11.1-23.8-19.3-40.6-26.7c-4.7-2-6.4-7-5.3-10.9c1.2-3.6,5.5-5.7,11.7-7.3c11.1-2.8,26.7-3.1,32.4-3.1h135v-33.9
			c-23.5-14.4-41.3-42.8-42.8-63.6c-15.8,1.2-32-2.9-41.9-20c-30.1,17.7-107.4,5.7-128.3-9.9c-5.1-3.8-7.6-6.7-7.2-13.7l0.6-8
			c0.6-7.7,1-8.9,8.6-10.5c7.2-1.5,14.3-2.8,21.3-4.5c37.5-9.5,84.6-28.6,119.2-47.7c19-10.5,36.8-5.5,54.1,5.5
			c8.2,5.3,14.9,10.7,21,16.9l39.1,46.1c1.8-6.7,6.4-14.2,10.2-18.8c5.5-6.6,12.1-12.3,19.4-16.8C488.8,137.1,518.5,135.7,543,147.3
			L543,147.3z"/>
		<path class="st3" d="M569.8,334.6H432.1c-1.3,0-2.2-1-2.2-2.2l0.3-145.6l-14.6-17.1v177.9h168.7
			C580.3,343.5,575.7,339.2,569.8,334.6L569.8,334.6z M396.5,617.9H411V352.1H249.5c6,4.1,12,8.8,17.7,13.6h127.1
			c1.3,0,2.2,1,2.2,2.3V617.9L396.5,617.9z M415.7,617.9H430V367.8c0-1.5,0.9-2.2,2.2-2.2h165.3c-2.2-5.1-5.3-9.3-8.8-13.6H415.7
			V617.9L415.7,617.9z M411,164.1l-14.6-17.2v185.5c0,1.2-1,2.2-2.2,2.2c-47.1,0-94.4,0-141.5,0c-7.2,0-14.3,0.4-21.3,1.8
			c-6.7,1.3-5.7,2-0.1,4.7c3.9,1.9,7.7,4.2,11.2,6.4H411L411,164.1L411,164.1z"/>
		<path class="st4" d="M505,370c5.7,5.3,12.1,9.2,23.5,13.3c1.2,0.4,1.8,1.6,1.3,2.8l0,0c-9.8,27.7-14,54-13,80.3
			c1,26.3,6.4,52.7,18.4,79.5c3.4,7.4,8,1,11.2-3.4c13.6-19,22.5-35.9,29-52.8c9.2-23.8,13.9-48.4,19.3-73.1
			c4.7-20.7,7.6-34.1,4.1-46.6L505,370L505,370z M564.1,330.2c-11.2-8.2-22.9-15.9-34.3-24.1c-7-5.1-13.1-10.2-17.1-18.1
			c-2.2-4.5-3.4-9.3-3.4-14.4c0-10.9,4.1-43.2,4.1-43.3c0.1-0.9,0.7-1.5,1.5-1.9l10.5-4.2l-3.9-4.8c-1.9-2.2-1.2-2.3-1.8-5.4
			c-1.5-8.2-5-14.7-13.6-15.9c-7.2-1-13.4,2.6-18.5,8.9c-5.7,7-13,8.8-19.3,8.6c-4.4-0.1-8.2-1-11.7-2.6c-4.4-2-8.2-5.3-11.8-9.3
			l-10.7-11.8v138.5L564.1,330.2L564.1,330.2z M392.1,142.5c-5.4-5.3-11.1-10.2-17.9-14.6c-16.8-10.9-32.7-15.5-51.2-5.4
			c-34.7,19-81.1,37.8-118.8,47.4c-7.3,1.9-14.9,3.2-22.3,4.8c-7.3,1.5-4.8,5.5-1,9.3c19.1,19,100.5,29.2,126.2,12.1
			c2.9-1.9,5.7-2.2,7.2,1.5c7,17.1,29.6,22.9,47.4,20.3c1.6-0.3,2,1.3,2.2,2.6c1.6,16.6,11.8,40.7,28.2,53v-131H392.1z M472.9,370
			h-38.7v20C448.4,386.2,462.9,380.8,472.9,370L472.9,370z M392.1,487.6V370h-120c36.8,32.7,23.9,56.6,69,71.7
			c18.1,6,18.5,1.9,29.6,18.4C377.3,469.7,383.8,479.5,392.1,487.6L392.1,487.6z"/>
		<path class="st3" d="M515.7,283.5c9-0.9,17.7-3.4,25.8-7.3l-12.3-21.3c-4.5,2.2-9.5,3.5-14.4,4.2
			C514.1,267.1,512.8,275.9,515.7,283.5L515.7,283.5z M515.2,254.7c4.1-0.6,8-1.9,11.8-3.6l-9.6-16.6C516.8,239,516,247,515.2,254.7
			L515.2,254.7z M520.3,230.9l10.5,18.2c12-7,20.3-19.3,21-33.3h-27.4v0.3l6.3,7.4c1,1.2,0.6,2.9-0.7,3.5L520.3,230.9L520.3,230.9z
			 M523.9,211.7H552c-0.7-13.9-9-26.4-21-33.3L518.5,200C521.1,203.1,522.8,207,523.9,211.7L523.9,211.7z M515.1,196.9l12-20.6
			c-12-5.5-26.3-5.5-38.2,0l10.2,17.8c2.5-0.6,5-0.7,7.6-0.4C510,194.2,512.8,195.3,515.1,196.9L515.1,196.9z M495,195.5l-9.9-17.2
			c-12.1,7.2-20.3,18.4-21,32.5v0.3c8.5,1.3,15.3-1,20.9-7.6C487.8,200,491.2,197.2,495,195.5L495,195.5z M459.8,209.5
			c0.1-1.5,0.1-1.9,0.4-3.4c2.3-13.3,10.8-24.7,22.6-31.5l-12.3-21.3c-10.4,5.7-19.3,13.9-25.7,23.6c-1.9,2.8-4.7,8.9-5.7,13.6
			C443.6,195.8,451.9,206.1,459.8,209.5L459.8,209.5z M474.4,151.3l12.3,21.3c13.3-6.3,29.2-6.3,42.6,0l12.3-21.3
			C520.6,141.2,495.4,141.2,474.4,151.3L474.4,151.3z M533,253l12.3,21.3c21.3-11.8,36-33.6,36.8-58.4h-25.8
			C555.5,231.5,546.5,245.1,533,253L533,253z M545.3,153.3L533,174.6c13.3,7.9,22.5,21.3,23.2,37.1h25.8
			C581.3,187,566.8,165.1,545.3,153.3L545.3,153.3z"/>
	</g>
	<g>
		<path class="st5" d="M1112.2,551.5v70.1h-11.7v-70.1H1112.2z M1088.4,559.1c0,1-0.2,2-0.6,2.8c-0.4,0.9-0.9,1.6-1.6,2.3
			c-0.7,0.7-1.5,1.2-2.4,1.6c-0.9,0.4-1.9,0.6-2.9,0.6c-1,0-1.9-0.2-2.8-0.6c-0.9-0.4-1.7-0.9-2.3-1.6c-0.7-0.7-1.2-1.4-1.6-2.3
			c-0.4-0.9-0.6-1.8-0.6-2.8c0-1,0.2-2,0.6-2.9c0.4-0.9,0.9-1.7,1.6-2.4c0.7-0.7,1.4-1.2,2.3-1.6c0.9-0.4,1.8-0.6,2.8-0.6
			c1,0,2,0.2,2.9,0.6c0.9,0.4,1.7,0.9,2.4,1.6c0.7,0.7,1.2,1.4,1.6,2.4C1088.2,557,1088.4,558,1088.4,559.1z M1086.6,573.2v48.4
			H1075v-48.4H1086.6z M1061.7,582.6c-0.3,0.5-0.6,0.8-1,1.1c-0.3,0.2-0.8,0.3-1.3,0.3c-0.6,0-1.2-0.2-1.8-0.5
			c-0.6-0.3-1.4-0.7-2.2-1.1c-0.8-0.4-1.8-0.7-2.9-1.1c-1.1-0.3-2.4-0.5-3.9-0.5c-2.3,0-4.1,0.5-5.4,1.5c-1.3,1-2,2.2-2,3.8
			c0,1,0.3,1.9,1,2.6c0.7,0.7,1.6,1.3,2.7,1.9c1.1,0.5,2.4,1,3.8,1.4c1.4,0.4,2.9,0.9,4.3,1.4c1.5,0.5,2.9,1.1,4.3,1.7
			c1.4,0.6,2.7,1.5,3.8,2.5c1.1,1,2,2.2,2.7,3.6c0.7,1.4,1,3.1,1,5c0,2.3-0.4,4.5-1.3,6.4c-0.9,2-2.1,3.7-3.7,5.1
			c-1.6,1.4-3.6,2.5-6.1,3.4c-2.4,0.8-5.2,1.2-8.3,1.2c-1.7,0-3.3-0.2-4.9-0.5c-1.6-0.3-3.1-0.7-4.6-1.2c-1.5-0.5-2.8-1.2-4.1-1.9
			c-1.2-0.7-2.3-1.5-3.3-2.4l2.7-4.4c0.3-0.5,0.8-0.9,1.2-1.2c0.5-0.3,1.1-0.4,1.8-0.4c0.7,0,1.4,0.2,2.1,0.6
			c0.6,0.4,1.4,0.8,2.2,1.3c0.8,0.5,1.9,0.9,3,1.3c1.1,0.4,2.6,0.6,4.4,0.6c1.4,0,2.6-0.2,3.6-0.5c1-0.3,1.8-0.8,2.5-1.3
			c0.6-0.5,1.1-1.2,1.4-1.9c0.3-0.7,0.4-1.4,0.4-2.2c0-1.1-0.3-2.1-1-2.8c-0.7-0.7-1.6-1.4-2.7-1.9c-1.1-0.5-2.4-1-3.8-1.4
			c-1.4-0.4-2.9-0.9-4.4-1.4c-1.5-0.5-3-1.1-4.4-1.8c-1.4-0.7-2.7-1.5-3.8-2.6c-1.1-1-2-2.3-2.7-3.8c-0.7-1.5-1-3.3-1-5.5
			c0-2,0.4-3.9,1.2-5.7c0.8-1.8,2-3.4,3.5-4.7c1.5-1.3,3.4-2.4,5.7-3.2c2.3-0.8,4.9-1.2,7.9-1.2c3.3,0,6.4,0.6,9.1,1.7
			c2.7,1.1,5,2.5,6.8,4.3L1061.7,582.6z M998.8,614.3c1.2,0,2.3-0.1,3.3-0.3c1-0.2,2-0.6,2.9-1c0.9-0.4,1.8-1,2.6-1.6
			c0.8-0.6,1.7-1.4,2.5-2.3v-8.2c-3.4,0.2-6.2,0.4-8.5,0.9c-2.3,0.4-4.1,1-5.5,1.6c-1.4,0.7-2.4,1.4-2.9,2.3
			c-0.6,0.9-0.9,1.8-0.9,2.9c0,2,0.6,3.5,1.8,4.4C995.3,613.9,996.9,614.3,998.8,614.3z M1021.5,621.6h-5.2c-1.1,0-2-0.2-2.6-0.5
			c-0.6-0.3-1.1-1-1.4-2l-1-3.4c-1.2,1.1-2.4,2.1-3.6,2.9c-1.2,0.8-2.4,1.5-3.7,2.1c-1.3,0.6-2.6,1-4,1.3c-1.4,0.3-3,0.4-4.7,0.4
			c-2,0-3.9-0.3-5.7-0.8c-1.7-0.6-3.2-1.4-4.5-2.5c-1.2-1.1-2.2-2.5-2.9-4.1c-0.7-1.6-1-3.5-1-5.7c0-1.8,0.5-3.6,1.4-5.4
			c1-1.8,2.5-3.4,4.8-4.8c2.2-1.4,5.2-2.6,8.9-3.6c3.7-0.9,8.3-1.5,13.8-1.6V591c0-3.2-0.7-5.6-2-7.2c-1.4-1.6-3.4-2.3-6-2.3
			c-1.9,0-3.5,0.2-4.7,0.7c-1.3,0.4-2.3,0.9-3.3,1.5c-0.9,0.6-1.8,1.1-2.6,1.5c-0.8,0.4-1.7,0.7-2.6,0.7c-0.8,0-1.5-0.2-2-0.6
			c-0.6-0.4-1-0.9-1.4-1.5l-2.1-3.7c5.6-5.1,12.3-7.6,20.1-7.6c2.8,0,5.4,0.5,7.6,1.4c2.2,0.9,4.1,2.2,5.6,3.9
			c1.5,1.7,2.7,3.6,3.5,5.9c0.8,2.3,1.2,4.8,1.2,7.6V621.6z M946.4,621.6v-48.4h6.8c1.2,0,2,0.2,2.5,0.7c0.5,0.4,0.8,1.2,0.9,2.3
			l0.7,5.8c1.7-3,3.8-5.3,6.1-7.1c2.3-1.7,4.9-2.6,7.8-2.6c2.4,0,4.4,0.6,5.9,1.7l-1.5,8.7c-0.1,0.6-0.3,1-0.6,1.2
			c-0.3,0.2-0.7,0.4-1.3,0.4c-0.5,0-1.1-0.1-1.9-0.3c-0.8-0.2-1.9-0.3-3.3-0.3c-2.4,0-4.5,0.7-6.2,2c-1.7,1.3-3.2,3.3-4.4,5.9v30.1
			H946.4z M898.3,582.9h10.1c4.3,0,7.6-0.8,9.8-2.4c2.2-1.6,3.3-4.1,3.3-7.5c0-3.6-1-6.1-3-7.6c-2-1.5-5.2-2.3-9.4-2.3h-10.9V582.9z
			 M898.3,591.7v20h12.9c2.4,0,4.3-0.3,5.9-0.8c1.6-0.6,2.9-1.3,3.8-2.3c1-0.9,1.7-2,2.1-3.3c0.4-1.3,0.6-2.6,0.6-4
			c0-1.5-0.2-2.8-0.7-4c-0.5-1.2-1.2-2.2-2.2-3c-1-0.8-2.3-1.5-3.9-1.9c-1.6-0.4-3.5-0.7-5.7-0.7H898.3z M885.6,621.6v-68.2h23.5
			c4.5,0,8.3,0.4,11.5,1.3c3.2,0.9,5.8,2.1,7.8,3.6c2,1.6,3.5,3.5,4.5,5.7c0.9,2.2,1.4,4.8,1.4,7.6c0,1.6-0.2,3.1-0.7,4.6
			c-0.5,1.5-1.2,2.8-2.2,4.1c-1,1.3-2.2,2.4-3.8,3.5c-1.5,1-3.4,1.9-5.5,2.6c9.4,2.1,14.1,7.2,14.1,15.2c0,2.9-0.6,5.6-1.7,8
			c-1.1,2.5-2.7,4.6-4.8,6.3c-2.1,1.8-4.7,3.2-7.8,4.2c-3.1,1-6.6,1.5-10.6,1.5H885.6z"/>
		<path class="st6" d="M906.6,180.6v33.1h-20.8v-89.5h29.1c6.5,0,12,0.7,16.6,2c4.6,1.3,8.3,3.2,11.2,5.6c2.9,2.4,5,5.2,6.3,8.4
			c1.3,3.2,2,6.8,2,10.6c0,2.9-0.4,5.7-1.2,8.2c-0.8,2.6-1.9,5-3.5,7.1c-1.5,2.2-3.4,4.2-5.7,5.9c-2.2,1.7-4.8,3.1-7.7,4.2
			c1.4,0.7,2.7,1.6,3.9,2.6c1.2,1,2.3,2.3,3.2,3.7l19.1,31.2h-18.8c-3.5,0-6-1.3-7.5-3.9l-14.9-26c-0.7-1.1-1.4-2-2.3-2.5
			c-0.9-0.5-2.1-0.7-3.7-0.7H906.6z M1432.9,149c4.8,0,9.2,0.8,13.2,2.3c4,1.5,7.4,3.7,10.2,6.5c2.8,2.8,5.1,6.2,6.6,10.3
			c1.6,4,2.4,8.6,2.4,13.6c0,5.1-0.8,9.6-2.4,13.7c-1.6,4.1-3.8,7.5-6.6,10.4c-2.8,2.8-6.3,5-10.2,6.6c-4,1.5-8.4,2.3-13.2,2.3
			c-4.9,0-9.3-0.8-13.3-2.3c-4-1.5-7.4-3.7-10.3-6.6c-2.9-2.8-5.1-6.3-6.7-10.4c-1.6-4.1-2.4-8.6-2.4-13.7c0-5,0.8-9.6,2.4-13.6
			c1.6-4,3.8-7.5,6.7-10.3c2.9-2.8,6.3-5,10.3-6.5C1423.6,149.8,1428,149,1432.9,149z M1432.9,200.6c4.4,0,7.6-1.6,9.7-4.6
			c2.1-3.1,3.1-7.8,3.1-14.1c0-6.3-1-11-3.1-14.1c-2.1-3.1-5.3-4.6-9.7-4.6c-4.5,0-7.8,1.5-9.9,4.6c-2.1,3.1-3.1,7.8-3.1,14.1
			c0,6.3,1,11,3.1,14.1C1425.1,199,1428.4,200.6,1432.9,200.6z M1384.6,213.7c-1.8,0-3.2-0.2-4.1-0.7c-0.9-0.5-1.7-1.5-2.3-3.1
			l-1.3-3.5c-1.6,1.4-3.1,2.5-4.6,3.6c-1.5,1-3,1.9-4.6,2.6c-1.6,0.7-3.3,1.2-5,1.6c-1.8,0.3-3.8,0.5-5.9,0.5
			c-2.9,0-5.6-0.4-7.9-1.1c-2.4-0.8-4.4-1.9-6-3.3c-1.7-1.5-2.9-3.3-3.9-5.5c-0.9-2.2-1.4-4.7-1.4-7.6c0-2.3,0.6-4.6,1.7-6.9
			c1.1-2.4,3.1-4.5,6-6.5c2.8-1.9,6.6-3.6,11.4-4.9c4.8-1.3,10.8-2.1,18.1-2.2v-2.7c0-3.7-0.8-6.4-2.3-8.1c-1.5-1.7-3.7-2.5-6.6-2.5
			c-2.3,0-4.1,0.2-5.5,0.7c-1.4,0.5-2.7,1-3.8,1.7c-1.1,0.6-2.2,1.2-3.3,1.7c-1.1,0.5-2.3,0.7-3.8,0.7c-1.3,0-2.4-0.3-3.3-1
			c-0.9-0.6-1.7-1.4-2.2-2.4l-3.4-6c3.8-3.4,8.1-5.9,12.8-7.6c4.7-1.7,9.7-2.5,15.1-2.5c3.9,0,7.3,0.6,10.4,1.9
			c3.1,1.2,5.7,3,7.9,5.2c2.2,2.2,3.8,4.9,4.9,8c1.1,3.1,1.7,6.4,1.7,10.1v39.8H1384.6z M1362.7,202.1c2.5,0,4.6-0.4,6.4-1.3
			c1.8-0.9,3.7-2.3,5.6-4.2v-8.8c-3.8,0.2-6.9,0.5-9.4,1c-2.5,0.5-4.4,1.1-5.8,1.8c-1.4,0.7-2.4,1.6-3,2.5c-0.5,0.9-0.8,2-0.8,3.1
			c0,2.2,0.6,3.7,1.8,4.6C1358.7,201.7,1360.4,202.1,1362.7,202.1z M1374.1,128.5c1,0,1.8-0.3,2.4-0.8c0.6-0.5,0.9-1.6,0.9-3.3h11.6
			c0,2.6-0.3,4.9-1.1,7c-0.7,2.1-1.7,3.8-3,5.3c-1.3,1.5-2.8,2.6-4.5,3.4c-1.7,0.8-3.6,1.2-5.6,1.2c-1.5,0-2.9-0.2-4.2-0.7
			c-1.3-0.5-2.5-1-3.6-1.6c-1.1-0.6-2.2-1.1-3.1-1.6c-0.9-0.5-1.7-0.7-2.4-0.7c-1,0-1.8,0.3-2.3,0.8c-0.6,0.5-0.9,1.7-0.9,3.4h-11.7
			c0-2.6,0.4-4.9,1.1-7c0.7-2.1,1.7-3.8,3-5.3c1.3-1.5,2.8-2.6,4.5-3.4c1.7-0.8,3.6-1.2,5.5-1.2c1.5,0,2.9,0.2,4.3,0.7
			c1.3,0.5,2.5,1,3.6,1.6c1.1,0.6,2.1,1.1,3,1.6C1372.6,128.3,1373.4,128.5,1374.1,128.5z M1300,226.6c0.6,0,1.2,0.1,1.8,0.2
			c0.6,0.2,1.3,0.2,2.1,0.2c1.1,0,1.8-0.2,2.3-0.6c0.5-0.4,0.7-0.8,0.7-1.2c0-0.9-0.6-1.5-1.9-1.9c-1.2-0.4-3.4-0.8-6.4-1.3l2.4-8
			c-3.2-0.7-6.2-1.9-9-3.6c-2.8-1.8-5.3-4-7.4-6.8c-2.1-2.7-3.7-6-4.9-9.6c-1.2-3.7-1.8-7.8-1.8-12.3c0-4.6,0.7-8.9,2.1-12.9
			c1.4-4,3.4-7.5,6.1-10.4c2.7-2.9,6-5.2,10-6.9c4-1.7,8.5-2.5,13.7-2.5c5,0,9.4,0.8,13.1,2.4c3.8,1.6,7.2,3.9,10.2,7l-5,6.7
			c-0.6,0.7-1.1,1.2-1.7,1.7c-0.5,0.4-1.3,0.6-2.3,0.6c-0.9,0-1.8-0.2-2.5-0.7c-0.8-0.4-1.6-1-2.6-1.5c-0.9-0.6-2-1-3.3-1.5
			c-1.3-0.4-2.9-0.7-4.7-0.7c-2.3,0-4.3,0.4-6,1.3c-1.7,0.9-3.1,2.1-4.2,3.7c-1.1,1.6-1.9,3.5-2.5,5.9c-0.5,2.3-0.8,4.9-0.8,7.8
			c0,6.1,1.2,10.8,3.5,14.1c2.4,3.3,5.6,4.9,9.7,4.9c2.2,0,4-0.3,5.3-0.8c1.3-0.6,2.4-1.2,3.3-1.8c0.9-0.7,1.7-1.3,2.5-1.9
			c0.8-0.6,1.7-0.9,2.8-0.9c1.5,0,2.7,0.6,3.4,1.7l5.5,6.8c-1.6,1.8-3.2,3.3-4.9,4.6c-1.7,1.2-3.4,2.3-5.2,3.1
			c-1.8,0.8-3.6,1.5-5.4,1.9c-1.8,0.5-3.6,0.8-5.4,1l-0.6,2c1.8,0.5,3.4,1.1,4.6,1.7c1.2,0.7,2.2,1.4,2.9,2.2
			c0.7,0.8,1.2,1.6,1.5,2.5c0.3,0.9,0.4,1.9,0.4,2.9c0,1.4-0.4,2.7-1.2,3.9c-0.8,1.1-1.9,2.1-3.4,3c-1.4,0.8-3.2,1.5-5.2,1.9
			c-2,0.4-4.3,0.7-6.7,0.7c-1.7,0-3.2-0.1-4.6-0.2c-1.4-0.2-2.9-0.4-4.5-0.7l1.7-5.8C1298.1,227.2,1298.8,226.6,1300,226.6z
			 M1262.4,213.7c-1.8,0-3.2-0.2-4.1-0.7c-0.9-0.5-1.7-1.5-2.3-3.1l-1.4-3.5c-1.6,1.4-3.1,2.5-4.6,3.6c-1.5,1-3,1.9-4.6,2.6
			c-1.6,0.7-3.3,1.2-5,1.6c-1.8,0.3-3.8,0.5-5.9,0.5c-2.9,0-5.5-0.4-7.9-1.1c-2.4-0.8-4.4-1.9-6-3.3c-1.7-1.5-2.9-3.3-3.9-5.5
			c-0.9-2.2-1.4-4.7-1.4-7.6c0-2.3,0.6-4.6,1.7-6.9c1.1-2.4,3.1-4.5,6-6.5c2.8-1.9,6.6-3.6,11.4-4.9c4.8-1.3,10.8-2.1,18.1-2.2v-2.7
			c0-3.7-0.8-6.4-2.3-8.1c-1.5-1.7-3.7-2.5-6.6-2.5c-2.3,0-4.1,0.2-5.5,0.7c-1.4,0.5-2.7,1-3.8,1.7c-1.1,0.6-2.2,1.2-3.3,1.7
			c-1.1,0.5-2.3,0.7-3.8,0.7c-1.3,0-2.4-0.3-3.3-1c-0.9-0.6-1.7-1.4-2.2-2.4l-3.4-6c3.9-3.4,8.1-5.9,12.8-7.6
			c4.7-1.7,9.7-2.5,15.1-2.5c3.9,0,7.3,0.6,10.4,1.9c3.1,1.2,5.7,3,7.9,5.2c2.1,2.2,3.8,4.9,4.9,8c1.1,3.1,1.7,6.4,1.7,10.1v39.8
			H1262.4z M1240.5,202.1c2.5,0,4.6-0.4,6.5-1.3c1.8-0.9,3.7-2.3,5.6-4.2v-8.8c-3.8,0.2-6.9,0.5-9.4,1c-2.5,0.5-4.4,1.1-5.8,1.8
			c-1.4,0.7-2.4,1.6-3,2.5c-0.6,0.9-0.8,2-0.8,3.1c0,2.2,0.6,3.7,1.8,4.6C1236.5,201.7,1238.2,202.1,1240.5,202.1z M1192.4,213.7
			h-17.3l-24.7-63.7h15.9c1.4,0,2.5,0.3,3.4,0.9c0.9,0.6,1.5,1.4,1.9,2.4l8.9,28.6c0.7,2.3,1.4,4.6,2,6.8c0.6,2.2,1.2,4.4,1.6,6.6
			c0.5-2.2,1-4.4,1.7-6.6c0.7-2.2,1.4-4.5,2.1-6.8l9.2-28.6c0.3-0.9,0.9-1.7,1.8-2.4c0.9-0.6,2-0.9,3.2-0.9h15.1L1192.4,213.7z
			 M1119.9,149c4.8,0,9.2,0.8,13.2,2.3c4,1.5,7.4,3.7,10.2,6.5c2.8,2.8,5.1,6.2,6.6,10.3c1.6,4,2.4,8.6,2.4,13.6
			c0,5.1-0.8,9.6-2.4,13.7c-1.6,4.1-3.8,7.5-6.6,10.4c-2.8,2.8-6.3,5-10.2,6.6c-4,1.5-8.4,2.3-13.2,2.3c-4.9,0-9.3-0.8-13.3-2.3
			c-4-1.5-7.4-3.7-10.3-6.6c-2.9-2.8-5.1-6.3-6.7-10.4c-1.6-4.1-2.4-8.6-2.4-13.7c0-5,0.8-9.6,2.4-13.6c1.6-4,3.8-7.5,6.7-10.3
			c2.9-2.8,6.3-5,10.3-6.5C1110.6,149.8,1115,149,1119.9,149z M1119.9,200.6c4.4,0,7.6-1.6,9.7-4.6c2.1-3.1,3.1-7.8,3.1-14.1
			c0-6.3-1-11-3.1-14.1c-2.1-3.1-5.3-4.6-9.7-4.6c-4.5,0-7.8,1.5-9.9,4.6c-2.1,3.1-3.1,7.8-3.1,14.1c0,6.3,1.1,11,3.1,14.1
			C1112.1,199,1115.4,200.6,1119.9,200.6z M1023.3,213.7V150h11.8c1.2,0,2.2,0.3,3,0.8c0.8,0.5,1.3,1.3,1.7,2.4l1.1,3.7
			c1.2-1.1,2.5-2.2,3.8-3.2c1.3-1,2.7-1.8,4.2-2.5c1.5-0.7,3.1-1.2,4.9-1.6c1.7-0.4,3.6-0.6,5.7-0.6c3.5,0,6.6,0.6,9.3,1.8
			c2.7,1.2,4.9,2.9,6.8,5c1.8,2.1,3.2,4.7,4.2,7.7c0.9,3,1.4,6.2,1.4,9.7v40.5h-19v-40.5c0-3.1-0.7-5.5-2.2-7.3
			c-1.4-1.7-3.5-2.6-6.3-2.6c-2.1,0-4.1,0.5-5.9,1.4c-1.8,0.9-3.6,2.1-5.3,3.6v45.4H1023.3z M987,149c4.2,0,8.1,0.7,11.6,2
			c3.5,1.3,6.5,3.2,9,5.7c2.5,2.5,4.5,5.5,5.9,9.2c1.4,3.6,2.1,7.7,2.1,12.3c0,1.4-0.1,2.6-0.2,3.5c-0.1,0.9-0.3,1.6-0.7,2.1
			c-0.3,0.5-0.8,0.9-1.3,1.1c-0.6,0.2-1.3,0.3-2.1,0.3h-36.7c0.6,5.3,2.2,9.2,4.9,11.6c2.6,2.4,6,3.6,10.1,3.6
			c2.2,0,4.1-0.3,5.7-0.8c1.6-0.5,3-1.1,4.3-1.8c1.3-0.7,2.4-1.3,3.4-1.8c1-0.5,2.1-0.8,3.3-0.8c1.5,0,2.7,0.6,3.4,1.7l5.5,6.8
			c-2,2.3-4.1,4.1-6.4,5.5c-2.3,1.4-4.6,2.5-7,3.3c-2.4,0.8-4.8,1.4-7.2,1.7c-2.4,0.3-4.7,0.5-6.9,0.5c-4.5,0-8.6-0.7-12.6-2.2
			c-3.9-1.5-7.3-3.6-10.3-6.5c-2.9-2.9-5.2-6.4-6.9-10.7c-1.7-4.3-2.6-9.2-2.6-14.9c0-4.3,0.7-8.3,2.2-12.1c1.5-3.8,3.5-7.1,6.3-10
			c2.7-2.9,6-5.1,9.9-6.8C977.7,149.9,982.1,149,987,149z M987.3,162.2c-3.6,0-6.5,1-8.5,3.1c-2,2.1-3.4,5.1-4.1,9h23.8
			c0-1.5-0.2-3-0.6-4.4c-0.4-1.4-1-2.7-1.9-3.8c-0.9-1.1-2-2-3.5-2.7C991.1,162.5,989.4,162.2,987.3,162.2z M942.2,460.8
			c0.5,0,1,0.1,1.5,0.3c0.5,0.2,1,0.5,1.4,1l8.2,8.7c-3.6,4.7-8.1,8.3-13.5,10.7c-5.4,2.4-11.9,3.6-19.3,3.6
			c-6.8,0-12.9-1.2-18.3-3.5c-5.4-2.3-10-5.5-13.7-9.6c-3.7-4.1-6.6-8.9-8.6-14.5c-2-5.6-3-11.7-3-18.2c0-6.7,1.1-12.8,3.4-18.4
			c2.3-5.6,5.5-10.4,9.6-14.5c4.1-4.1,9-7.2,14.8-9.5c5.7-2.3,12.1-3.4,19-3.4c3.4,0,6.5,0.3,9.5,0.9c3,0.6,5.7,1.4,8.3,2.5
			c2.6,1,5,2.3,7.1,3.7c2.2,1.5,4.1,3.1,5.8,4.8l-7,9.4c-0.4,0.6-1,1.1-1.6,1.6c-0.6,0.5-1.5,0.7-2.6,0.7c-0.7,0-1.4-0.2-2.1-0.5
			c-0.7-0.3-1.3-0.7-2.1-1.2c-0.7-0.5-1.5-1-2.4-1.5c-0.9-0.6-1.9-1.1-3.1-1.5c-1.2-0.5-2.6-0.9-4.2-1.2c-1.6-0.3-3.5-0.5-5.7-0.5
			c-3.8,0-7.2,0.7-10.3,2c-3.1,1.3-5.8,3.2-8,5.7c-2.2,2.5-4,5.5-5.2,9c-1.2,3.5-1.9,7.5-1.9,11.9c0,4.6,0.6,8.7,1.9,12.2
			c1.2,3.6,2.9,6.6,5.1,9c2.2,2.4,4.6,4.3,7.5,5.6c2.9,1.3,5.9,1.9,9.2,1.9c1.9,0,3.6-0.1,5.2-0.3c1.6-0.2,3-0.5,4.3-0.9
			c1.3-0.4,2.6-1,3.8-1.8c1.2-0.7,2.4-1.6,3.6-2.7c0.5-0.4,1-0.8,1.6-1C941,461,941.6,460.8,942.2,460.8z M1301,484
			c-1.8,0-3.2-0.2-4.1-0.7c-0.9-0.5-1.7-1.5-2.3-3.1l-1.4-3.5c-1.6,1.4-3.1,2.5-4.6,3.6c-1.5,1-3,1.9-4.6,2.6
			c-1.6,0.7-3.3,1.3-5,1.6c-1.8,0.3-3.8,0.5-5.9,0.5c-2.9,0-5.5-0.4-7.9-1.1c-2.4-0.8-4.4-1.9-6-3.3c-1.7-1.5-2.9-3.3-3.8-5.5
			c-0.9-2.2-1.4-4.7-1.4-7.6c0-2.3,0.6-4.6,1.7-6.9c1.1-2.4,3.1-4.5,6-6.5c2.8-1.9,6.6-3.6,11.4-4.9c4.8-1.3,10.8-2.1,18.1-2.2v-2.7
			c0-3.7-0.8-6.4-2.3-8.1c-1.5-1.7-3.7-2.5-6.6-2.5c-2.3,0-4.1,0.2-5.5,0.7c-1.4,0.5-2.7,1-3.8,1.7c-1.1,0.6-2.2,1.2-3.3,1.7
			c-1.1,0.5-2.3,0.7-3.8,0.7c-1.3,0-2.4-0.3-3.3-1c-0.9-0.6-1.7-1.4-2.2-2.4l-3.4-6c3.9-3.4,8.1-5.9,12.8-7.6
			c4.7-1.7,9.7-2.5,15.1-2.5c3.9,0,7.3,0.6,10.4,1.9c3.1,1.3,5.7,3,7.9,5.2c2.1,2.2,3.8,4.9,4.9,8c1.1,3.1,1.7,6.4,1.7,10.1V484
			H1301z M1279.1,472.4c2.5,0,4.6-0.4,6.5-1.3c1.8-0.9,3.7-2.3,5.6-4.2v-8.8c-3.8,0.2-6.9,0.5-9.4,1c-2.5,0.5-4.4,1.1-5.8,1.8
			c-1.4,0.7-2.4,1.6-3,2.5c-0.6,0.9-0.8,2-0.8,3.1c0,2.2,0.6,3.7,1.8,4.6C1275.1,471.9,1276.8,472.4,1279.1,472.4z M1244.3,435.4
			c-0.6,0.7-1.1,1.3-1.7,1.7c-0.5,0.4-1.3,0.6-2.3,0.6c-0.9,0-1.8-0.2-2.5-0.7c-0.8-0.4-1.6-1-2.6-1.5c-0.9-0.6-2-1-3.3-1.5
			c-1.3-0.5-2.8-0.7-4.7-0.7c-2.3,0-4.3,0.4-6,1.3c-1.7,0.9-3.1,2.1-4.2,3.7c-1.1,1.6-1.9,3.5-2.5,5.9c-0.5,2.3-0.8,4.9-0.8,7.8
			c0,6.1,1.2,10.8,3.5,14.1c2.4,3.3,5.6,4.9,9.7,4.9c2.2,0,4-0.3,5.3-0.8c1.3-0.6,2.4-1.2,3.3-1.8c0.9-0.7,1.7-1.3,2.5-1.9
			c0.8-0.6,1.7-0.9,2.8-0.9c1.5,0,2.7,0.6,3.4,1.7l5.5,6.8c-2,2.3-4,4.1-6.2,5.5c-2.2,1.4-4.4,2.5-6.7,3.3c-2.3,0.8-4.6,1.4-6.9,1.7
			c-2.3,0.3-4.5,0.5-6.7,0.5c-3.9,0-7.6-0.7-11.1-2.2c-3.5-1.5-6.7-3.6-9.3-6.4c-2.7-2.8-4.8-6.2-6.4-10.3c-1.6-4.1-2.4-8.8-2.4-14
			c0-4.6,0.7-8.9,2.1-12.9c1.4-4,3.4-7.5,6.1-10.4c2.7-2.9,6-5.2,10-6.9c4-1.7,8.5-2.5,13.7-2.5c5,0,9.4,0.8,13.1,2.4
			c3.8,1.6,7.2,3.9,10.2,7L1244.3,435.4z M1186.1,420.3V484h-19v-63.7H1186.1z M1188.3,402.8c0,1.5-0.3,2.9-0.9,4.3
			c-0.6,1.3-1.5,2.5-2.5,3.5c-1.1,1-2.3,1.8-3.7,2.4c-1.4,0.6-2.9,0.9-4.5,0.9c-1.6,0-3-0.3-4.4-0.9c-1.4-0.6-2.5-1.4-3.6-2.4
			c-1-1-1.9-2.2-2.5-3.5c-0.6-1.3-0.9-2.7-0.9-4.3c0-1.6,0.3-3,0.9-4.4c0.6-1.3,1.4-2.5,2.5-3.6c1-1,2.2-1.8,3.6-2.4
			c1.4-0.6,2.8-0.9,4.4-0.9c1.6,0,3.1,0.3,4.5,0.9c1.4,0.6,2.6,1.4,3.7,2.4c1.1,1,1.9,2.2,2.5,3.6
			C1188,399.8,1188.3,401.3,1188.3,402.8z M1156.8,392v92h-19.1v-92H1156.8z M1096.5,419.3c4.8,0,9.2,0.8,13.2,2.3
			c4,1.5,7.4,3.7,10.2,6.5c2.8,2.8,5.1,6.2,6.6,10.3c1.6,4,2.4,8.6,2.4,13.6c0,5.1-0.8,9.6-2.4,13.7c-1.6,4.1-3.8,7.5-6.6,10.4
			c-2.8,2.8-6.3,5-10.2,6.6c-4,1.5-8.4,2.3-13.2,2.3c-4.9,0-9.3-0.8-13.3-2.3c-4-1.5-7.4-3.7-10.3-6.6c-2.9-2.8-5.1-6.3-6.7-10.4
			c-1.6-4.1-2.4-8.6-2.4-13.7c0-5,0.8-9.6,2.4-13.6c1.6-4,3.8-7.5,6.7-10.3c2.9-2.8,6.3-5,10.3-6.5
			C1087.2,420,1091.6,419.3,1096.5,419.3z M1096.5,470.8c4.4,0,7.6-1.6,9.7-4.6c2.1-3.1,3.1-7.8,3.1-14.1c0-6.3-1-11-3.1-14.1
			c-2.1-3.1-5.3-4.6-9.7-4.6c-4.5,0-7.8,1.5-9.9,4.6c-2.1,3.1-3.1,7.8-3.1,14.1c0,6.3,1,11,3.1,14.1
			C1088.7,469.3,1092,470.8,1096.5,470.8z M1120.8,393.5l-16,16.2c-0.9,0.9-1.8,1.6-2.7,2c-0.9,0.4-2,0.6-3.4,0.6h-11.4l8.4-15.1
			c0.7-1.2,1.5-2.1,2.5-2.7c0.9-0.6,2.4-0.9,4.3-0.9H1120.8z M1044.6,485c-3,0-5.7-0.5-8-1.3c-2.3-0.9-4.3-2.1-5.8-3.7
			c-1.6-1.6-2.8-3.6-3.6-5.9c-0.8-2.3-1.2-4.9-1.2-7.7v-32.9h-5.4c-1,0-1.8-0.3-2.5-1c-0.7-0.6-1-1.6-1-2.8v-7.4l10.1-2l3.7-15.5
			c0.5-2,1.9-2.9,4.2-2.9h10v18.6h15.5v13h-15.5v31.6c0,1.5,0.4,2.7,1.1,3.6c0.7,1,1.7,1.5,3.1,1.5c0.7,0,1.3-0.1,1.8-0.2
			c0.5-0.1,0.9-0.3,1.2-0.5c0.3-0.2,0.7-0.3,1-0.5c0.3-0.1,0.7-0.2,1.1-0.2c0.6,0,1,0.1,1.4,0.4c0.3,0.3,0.7,0.7,1.1,1.3l5.8,9
			c-2.5,1.8-5.2,3.2-8.3,4.1C1051,484.5,1047.8,485,1044.6,485z M1004.7,484c-1.8,0-3.2-0.2-4.1-0.7c-0.9-0.5-1.7-1.5-2.3-3.1
			l-1.3-3.5c-1.6,1.4-3.1,2.5-4.6,3.6c-1.5,1-3,1.9-4.6,2.6c-1.6,0.7-3.3,1.3-5,1.6c-1.8,0.3-3.8,0.5-5.9,0.5
			c-2.9,0-5.6-0.4-7.9-1.1c-2.4-0.8-4.4-1.9-6-3.3c-1.7-1.5-3-3.3-3.9-5.5c-0.9-2.2-1.4-4.7-1.4-7.6c0-2.3,0.6-4.6,1.7-6.9
			c1.1-2.4,3.1-4.5,6-6.5c2.8-1.9,6.6-3.6,11.4-4.9c4.8-1.3,10.8-2.1,18.1-2.2v-2.7c0-3.7-0.8-6.4-2.3-8.1c-1.5-1.7-3.7-2.5-6.6-2.5
			c-2.3,0-4.1,0.2-5.5,0.7c-1.4,0.5-2.7,1-3.8,1.7c-1.1,0.6-2.2,1.2-3.3,1.7c-1.1,0.5-2.3,0.7-3.8,0.7c-1.3,0-2.4-0.3-3.3-1
			c-0.9-0.6-1.7-1.4-2.2-2.4l-3.4-6c3.8-3.4,8.1-5.9,12.8-7.6c4.7-1.7,9.7-2.5,15.1-2.5c3.9,0,7.3,0.6,10.4,1.9
			c3.1,1.3,5.7,3,7.9,5.2c2.1,2.2,3.8,4.9,4.9,8c1.1,3.1,1.7,6.4,1.7,10.1V484H1004.7z M982.8,472.4c2.5,0,4.6-0.4,6.5-1.3
			c1.8-0.9,3.7-2.3,5.6-4.2v-8.8c-3.8,0.2-6.9,0.5-9.4,1c-2.5,0.5-4.4,1.1-5.8,1.8c-1.4,0.7-2.4,1.6-3,2.5c-0.6,0.9-0.8,2-0.8,3.1
			c0,2.2,0.6,3.7,1.8,4.6C978.8,471.9,980.6,472.4,982.8,472.4z M941.4,327.6c0.5,0,1,0.1,1.5,0.3c0.5,0.2,1,0.5,1.4,1l8.2,8.7
			c-3.6,4.7-8.1,8.3-13.5,10.6c-5.4,2.4-11.9,3.6-19.3,3.6c-6.8,0-12.9-1.2-18.3-3.5c-5.4-2.3-10-5.5-13.7-9.6
			c-3.7-4.1-6.6-8.9-8.6-14.5c-2-5.6-3-11.7-3-18.2c0-6.7,1.1-12.8,3.4-18.4c2.3-5.6,5.5-10.4,9.6-14.5c4.1-4.1,9-7.2,14.8-9.5
			c5.7-2.3,12.1-3.4,19-3.4c3.4,0,6.5,0.3,9.5,0.9c3,0.6,5.7,1.4,8.3,2.5c2.6,1,5,2.3,7.1,3.7c2.2,1.5,4.1,3.1,5.8,4.8l-7,9.4
			c-0.5,0.6-1,1.1-1.6,1.6c-0.6,0.5-1.5,0.7-2.6,0.7c-0.7,0-1.4-0.2-2.1-0.5c-0.7-0.3-1.4-0.7-2.1-1.2c-0.7-0.5-1.5-1-2.4-1.5
			c-0.9-0.6-1.9-1.1-3.1-1.5c-1.2-0.5-2.6-0.9-4.2-1.2c-1.6-0.3-3.5-0.5-5.7-0.5c-3.8,0-7.2,0.7-10.3,2c-3.1,1.3-5.8,3.2-8,5.7
			c-2.2,2.5-4,5.5-5.2,9c-1.2,3.5-1.9,7.5-1.9,11.9c0,4.6,0.6,8.7,1.9,12.2c1.2,3.6,3,6.6,5.1,9c2.2,2.4,4.6,4.3,7.5,5.6
			c2.9,1.3,5.9,1.9,9.2,1.9c1.9,0,3.6-0.1,5.2-0.3c1.6-0.2,3-0.5,4.3-0.9c1.3-0.4,2.6-1,3.8-1.8c1.2-0.7,2.4-1.6,3.6-2.7
			c0.5-0.4,1-0.8,1.6-1C940.2,327.7,940.8,327.6,941.4,327.6z M1491.3,348.8c-1.8,0-3.2-0.2-4.1-0.7c-0.9-0.5-1.7-1.5-2.3-3.1
			l-1.4-3.5c-1.6,1.4-3.1,2.5-4.6,3.6c-1.5,1-3,1.9-4.6,2.6c-1.6,0.7-3.3,1.2-5,1.6c-1.8,0.3-3.8,0.5-5.9,0.5
			c-2.9,0-5.5-0.4-7.9-1.1c-2.4-0.8-4.4-1.9-6-3.3c-1.7-1.5-2.9-3.3-3.9-5.5c-0.9-2.2-1.4-4.7-1.4-7.6c0-2.2,0.6-4.6,1.7-6.9
			c1.1-2.4,3.1-4.5,6-6.5c2.8-1.9,6.6-3.6,11.4-4.9c4.8-1.3,10.8-2,18.1-2.2V309c0-3.7-0.8-6.4-2.3-8.1c-1.5-1.7-3.7-2.5-6.6-2.5
			c-2.3,0-4.1,0.2-5.5,0.7c-1.4,0.5-2.7,1-3.8,1.7c-1.1,0.6-2.2,1.2-3.3,1.7c-1.1,0.5-2.3,0.7-3.8,0.7c-1.3,0-2.4-0.3-3.3-1
			c-0.9-0.6-1.7-1.4-2.2-2.4l-3.4-6c3.9-3.4,8.1-5.9,12.8-7.6c4.7-1.7,9.7-2.5,15.1-2.5c3.9,0,7.3,0.6,10.4,1.9
			c3.1,1.2,5.7,3,7.9,5.2c2.1,2.2,3.8,4.9,4.9,8c1.1,3.1,1.7,6.4,1.7,10.1v39.8H1491.3z M1469.4,337.2c2.5,0,4.6-0.4,6.5-1.3
			c1.8-0.9,3.7-2.3,5.6-4.2v-8.8c-3.8,0.2-6.9,0.5-9.4,1c-2.5,0.5-4.4,1.1-5.8,1.8c-1.4,0.7-2.4,1.6-3,2.5c-0.5,0.9-0.8,2-0.8,3.1
			c0,2.2,0.6,3.7,1.8,4.6C1465.4,336.8,1467.1,337.2,1469.4,337.2z M1434.8,300.2c-0.6,0.7-1.1,1.2-1.7,1.7
			c-0.5,0.4-1.3,0.6-2.3,0.6c-0.9,0-1.8-0.2-2.5-0.7c-0.8-0.4-1.6-1-2.6-1.5c-0.9-0.6-2-1-3.3-1.5c-1.3-0.5-2.8-0.7-4.7-0.7
			c-2.3,0-4.3,0.4-6,1.3c-1.7,0.9-3.1,2.1-4.2,3.7c-1.1,1.6-1.9,3.5-2.5,5.9c-0.5,2.3-0.8,4.9-0.8,7.8c0,6.1,1.2,10.8,3.5,14.1
			c2.4,3.3,5.6,4.9,9.7,4.9c2.2,0,4-0.3,5.3-0.8c1.3-0.6,2.4-1.2,3.3-1.8c0.9-0.7,1.7-1.3,2.5-1.9c0.8-0.6,1.7-0.9,2.8-0.9
			c1.5,0,2.7,0.6,3.4,1.7l5.5,6.8c-2,2.3-4,4.1-6.2,5.5c-2.2,1.4-4.4,2.5-6.7,3.3c-2.3,0.8-4.6,1.4-6.9,1.7
			c-2.3,0.3-4.5,0.5-6.7,0.5c-3.9,0-7.6-0.7-11.1-2.2c-3.5-1.5-6.7-3.6-9.3-6.4c-2.7-2.8-4.8-6.2-6.4-10.3c-1.6-4.1-2.4-8.8-2.4-14
			c0-4.6,0.7-8.9,2.1-12.9c1.4-4,3.4-7.5,6.1-10.4c2.7-2.9,6-5.2,10-6.9c4-1.7,8.5-2.5,13.7-2.5c5,0,9.4,0.8,13.1,2.4
			c3.8,1.6,7.2,3.9,10.2,7L1434.8,300.2z M1378.1,285.1v63.7h-19v-63.7H1378.1z M1380.3,267.7c0,1.5-0.3,2.9-0.9,4.3
			c-0.6,1.3-1.5,2.5-2.5,3.5c-1.1,1-2.3,1.8-3.7,2.4c-1.4,0.6-2.9,0.9-4.5,0.9c-1.6,0-3-0.3-4.4-0.9c-1.4-0.6-2.5-1.4-3.6-2.4
			c-1-1-1.9-2.2-2.5-3.5c-0.6-1.3-0.9-2.7-0.9-4.3c0-1.6,0.3-3,0.9-4.4c0.6-1.4,1.4-2.5,2.5-3.6c1-1,2.2-1.8,3.6-2.4
			c1.4-0.6,2.8-0.9,4.4-0.9c1.6,0,3.1,0.3,4.5,0.9c1.4,0.6,2.6,1.4,3.7,2.4c1.1,1,1.9,2.2,2.5,3.6
			C1380,264.7,1380.3,266.1,1380.3,267.7z M1334.7,349.8c-3,0-5.7-0.4-8-1.3c-2.3-0.9-4.3-2.1-5.8-3.7c-1.6-1.6-2.8-3.6-3.6-5.9
			c-0.8-2.3-1.2-4.9-1.2-7.7v-32.9h-5.4c-1,0-1.8-0.3-2.5-1c-0.7-0.6-1-1.6-1-2.8v-7.4l10.1-2l3.7-15.5c0.5-2,1.9-2.9,4.2-2.9h10
			v18.6h15.5v13H1335v31.6c0,1.5,0.4,2.7,1.1,3.6c0.7,1,1.7,1.5,3.1,1.5c0.7,0,1.3-0.1,1.8-0.2c0.5-0.1,0.9-0.3,1.2-0.5
			c0.3-0.2,0.7-0.3,1-0.5c0.3-0.1,0.7-0.2,1.1-0.2c0.6,0,1,0.1,1.4,0.4c0.3,0.3,0.7,0.7,1.1,1.3l5.8,9c-2.5,1.8-5.2,3.2-8.3,4.1
			C1341.1,349.4,1337.9,349.8,1334.7,349.8z M1296.4,348.8c-1.8,0-3.2-0.2-4.1-0.7c-0.9-0.5-1.7-1.5-2.3-3.1l-1.3-3.5
			c-1.6,1.4-3.1,2.5-4.6,3.6c-1.5,1-3,1.9-4.6,2.6c-1.6,0.7-3.3,1.2-5,1.6c-1.8,0.3-3.8,0.5-5.9,0.5c-2.9,0-5.5-0.4-7.9-1.1
			c-2.4-0.8-4.4-1.9-6-3.3c-1.7-1.5-2.9-3.3-3.8-5.5c-0.9-2.2-1.4-4.7-1.4-7.6c0-2.2,0.6-4.6,1.7-6.9c1.1-2.4,3.1-4.5,6-6.5
			c2.8-1.9,6.6-3.6,11.4-4.9c4.8-1.3,10.8-2,18.1-2.2V309c0-3.7-0.8-6.4-2.3-8.1c-1.5-1.7-3.7-2.5-6.6-2.5c-2.3,0-4.1,0.2-5.5,0.7
			c-1.4,0.5-2.7,1-3.8,1.7c-1.1,0.6-2.2,1.2-3.3,1.7c-1.1,0.5-2.3,0.7-3.8,0.7c-1.3,0-2.4-0.3-3.3-1c-0.9-0.6-1.7-1.4-2.2-2.4
			l-3.4-6c3.9-3.4,8.1-5.9,12.8-7.6c4.7-1.7,9.7-2.5,15.1-2.5c3.9,0,7.3,0.6,10.4,1.9c3.1,1.2,5.7,3,7.9,5.2c2.1,2.2,3.8,4.9,4.9,8
			c1.1,3.1,1.7,6.4,1.7,10.1v39.8H1296.4z M1274.5,337.2c2.5,0,4.6-0.4,6.5-1.3c1.8-0.9,3.7-2.3,5.6-4.2v-8.8
			c-3.8,0.2-6.9,0.5-9.4,1c-2.5,0.5-4.4,1.1-5.8,1.8c-1.4,0.7-2.4,1.6-3,2.5c-0.6,0.9-0.8,2-0.8,3.1c0,2.2,0.6,3.7,1.8,4.6
			C1270.5,336.8,1272.2,337.2,1274.5,337.2z M1303.9,258.3l-16,16.2c-0.9,0.9-1.8,1.6-2.7,2c-0.9,0.4-2,0.6-3.4,0.6h-11.4l8.4-15.1
			c0.7-1.2,1.5-2.1,2.5-2.7c0.9-0.6,2.4-0.9,4.3-0.9H1303.9z M1150.4,348.8v-63.7h11.8c1.2,0,2.2,0.3,3,0.8c0.8,0.5,1.4,1.3,1.7,2.4
			l1,3.4c1.1-1.1,2.2-2.1,3.3-3c1.1-0.9,2.4-1.7,3.7-2.4c1.3-0.7,2.8-1.2,4.3-1.6c1.5-0.4,3.2-0.6,5.1-0.6c3.9,0,7,1,9.6,3
			c2.5,2,4.4,4.6,5.7,8c1.1-2,2.4-3.6,3.9-5c1.5-1.4,3.2-2.5,5-3.4c1.8-0.9,3.7-1.5,5.7-1.9c2-0.4,4-0.6,5.9-0.6
			c3.6,0,6.9,0.5,9.7,1.6c2.8,1.1,5.2,2.7,7.1,4.7c1.9,2.1,3.3,4.6,4.3,7.6c1,3,1.5,6.4,1.5,10.2v40.5h-19.1v-40.5
			c0-6.6-2.8-9.9-8.5-9.9c-2.6,0-4.7,0.8-6.4,2.5c-1.7,1.7-2.6,4.2-2.6,7.4v40.5h-19v-40.5c0-3.6-0.7-6.2-2.2-7.7
			c-1.4-1.5-3.5-2.2-6.3-2.2c-1.7,0-3.3,0.4-4.9,1.2c-1.5,0.8-3,1.8-4.3,3.1v46.1H1150.4z M1139.5,299.1c-0.5,0.8-1,1.3-1.6,1.7
			c-0.6,0.3-1.3,0.5-2.1,0.5c-0.9,0-1.8-0.2-2.7-0.6c-0.9-0.4-1.9-0.8-2.9-1.2c-1-0.5-2.2-0.9-3.5-1.3c-1.3-0.4-2.8-0.6-4.5-0.6
			c-2.4,0-4.3,0.4-5.5,1.4c-1.3,0.9-1.9,2.2-1.9,3.8c0,1.2,0.4,2.2,1.3,3c0.8,0.8,1.9,1.5,3.3,2c1.4,0.6,3,1.2,4.7,1.7
			c1.8,0.5,3.6,1.1,5.4,1.8c1.8,0.7,3.6,1.4,5.4,2.3c1.8,0.9,3.3,2,4.7,3.3c1.4,1.3,2.5,2.9,3.4,4.7c0.8,1.8,1.2,4.1,1.2,6.6
			c0,3.2-0.6,6.1-1.7,8.7c-1.1,2.7-2.8,5-5.1,6.9c-2.3,1.9-5.1,3.4-8.4,4.5c-3.3,1.1-7.2,1.6-11.5,1.6c-2.2,0-4.3-0.2-6.5-0.6
			c-2.2-0.4-4.3-1-6.3-1.7c-2-0.7-3.9-1.5-5.6-2.5c-1.7-1-3.2-2-4.4-3.1l4.4-7c0.5-0.8,1.2-1.5,1.9-1.9c0.7-0.5,1.7-0.7,2.9-0.7
			c1.1,0,2.1,0.2,3,0.7c0.9,0.5,1.8,1,2.8,1.6c1,0.6,2.2,1.1,3.6,1.6c1.4,0.5,3.1,0.7,5.2,0.7c1.5,0,2.7-0.2,3.7-0.5
			c1-0.3,1.8-0.7,2.5-1.2c0.6-0.5,1.1-1.1,1.4-1.8c0.3-0.7,0.4-1.3,0.4-2c0-1.3-0.4-2.3-1.3-3.1c-0.9-0.8-2-1.5-3.4-2.1
			c-1.4-0.6-3-1.1-4.8-1.7c-1.8-0.5-3.6-1.1-5.5-1.7c-1.8-0.7-3.6-1.5-5.4-2.4c-1.8-0.9-3.4-2.1-4.8-3.5c-1.4-1.4-2.5-3.1-3.4-5.2
			c-0.9-2-1.3-4.5-1.3-7.4c0-2.7,0.5-5.3,1.6-7.7c1-2.4,2.6-4.6,4.7-6.4c2.1-1.8,4.7-3.3,7.9-4.4c3.2-1.1,6.8-1.6,11.1-1.6
			c2.3,0,4.5,0.2,6.7,0.6c2.2,0.4,4.2,1,6,1.7c1.9,0.7,3.6,1.6,5.2,2.6c1.6,1,2.9,2.1,4.1,3.3L1139.5,299.1z M1088.2,285.1v63.7h-19
			v-63.7H1088.2z M1090.4,267.7c0,1.5-0.3,2.9-0.9,4.3c-0.6,1.3-1.5,2.5-2.5,3.5c-1.1,1-2.3,1.8-3.7,2.4c-1.4,0.6-2.9,0.9-4.5,0.9
			c-1.6,0-3-0.3-4.4-0.9c-1.4-0.6-2.5-1.4-3.6-2.4c-1-1-1.9-2.2-2.5-3.5c-0.6-1.3-0.9-2.7-0.9-4.3c0-1.6,0.3-3,0.9-4.4
			c0.6-1.4,1.4-2.5,2.5-3.6c1-1,2.2-1.8,3.6-2.4c1.3-0.6,2.8-0.9,4.4-0.9c1.6,0,3.1,0.3,4.5,0.9c1.4,0.6,2.6,1.4,3.7,2.4
			c1.1,1,1.9,2.2,2.5,3.6C1090.1,264.7,1090.4,266.1,1090.4,267.7z M1022.2,348.8v-63.7h11.3c0.9,0,1.7,0.1,2.4,0.2
			c0.6,0.2,1.2,0.4,1.6,0.8c0.4,0.3,0.8,0.8,1,1.4c0.2,0.6,0.4,1.3,0.6,2.1l1,6c2.3-3.6,5-6.4,7.9-8.5c2.9-2.1,6.1-3.1,9.5-3.1
			c2.9,0,5.2,0.7,7,2.1l-2.5,14c-0.2,0.9-0.5,1.5-1,1.8c-0.5,0.3-1.1,0.5-2,0.5c-0.7,0-1.5-0.1-2.5-0.3c-0.9-0.2-2.1-0.3-3.6-0.3
			c-5,0-8.9,2.7-11.8,8v39.1H1022.2z M1003.1,348.8c-1.8,0-3.2-0.2-4.1-0.7c-0.9-0.5-1.7-1.5-2.3-3.1l-1.3-3.5
			c-1.6,1.4-3.1,2.5-4.6,3.6c-1.5,1-3,1.9-4.6,2.6c-1.6,0.7-3.3,1.2-5,1.6c-1.8,0.3-3.8,0.5-5.9,0.5c-2.9,0-5.6-0.4-7.9-1.1
			c-2.4-0.8-4.4-1.9-6-3.3c-1.7-1.5-3-3.3-3.8-5.5c-0.9-2.2-1.4-4.7-1.4-7.6c0-2.2,0.6-4.6,1.7-6.9c1.1-2.4,3.1-4.5,6-6.5
			c2.8-1.9,6.6-3.6,11.4-4.9c4.8-1.3,10.8-2,18.1-2.2V309c0-3.7-0.8-6.4-2.3-8.1c-1.5-1.7-3.7-2.5-6.6-2.5c-2.3,0-4.1,0.2-5.5,0.7
			c-1.4,0.5-2.7,1-3.8,1.7c-1.1,0.6-2.2,1.2-3.3,1.7c-1.1,0.5-2.3,0.7-3.8,0.7c-1.3,0-2.4-0.3-3.3-1c-0.9-0.6-1.7-1.4-2.2-2.4
			l-3.4-6c3.9-3.4,8.1-5.9,12.8-7.6c4.7-1.7,9.7-2.5,15.1-2.5c3.8,0,7.3,0.6,10.4,1.9c3.1,1.2,5.7,3,7.9,5.2c2.2,2.2,3.8,4.9,4.9,8
			c1.1,3.1,1.7,6.4,1.7,10.1v39.8H1003.1z M981.3,337.2c2.5,0,4.6-0.4,6.5-1.3c1.8-0.9,3.7-2.3,5.6-4.2v-8.8c-3.8,0.2-6.9,0.5-9.4,1
			c-2.5,0.5-4.4,1.1-5.8,1.8c-1.4,0.7-2.4,1.6-3,2.5c-0.6,0.9-0.8,2-0.8,3.1c0,2.2,0.6,3.7,1.8,4.6
			C977.2,336.8,979,337.2,981.3,337.2z M906.6,166.3h8.4c2.8,0,5.2-0.4,7.2-1.1c2-0.7,3.6-1.7,4.9-3c1.3-1.3,2.2-2.8,2.8-4.5
			c0.6-1.7,0.9-3.5,0.9-5.5c0-3.9-1.3-7-3.8-9.2c-2.6-2.2-6.5-3.3-11.9-3.3h-8.4V166.3z"/>
	</g>
</g>
</svg>
